M48
;Layer_Color=9474304
;FILE_FORMAT=4:4
METRIC,LZ
;TYPE=PLATED
T1F00S00C0.5000
T2F00S00C1.0000
T3F00S00C3.0000
;TYPE=NON_PLATED
T4F00S00C3.5000
%
T01
X00115Y002
Y00225
X0013Y002125
Y001875
X00145Y002
Y00225
X0013Y002375
X0059Y0025
X00651Y003059
Y003439
X00689
Y003059
X00715Y003006
X007275
X0073Y0025
X007825Y002492
X0077Y00389264
X006025Y0037
X00545
X00512501Y00115
X00487501
X00500001Y001
X00525001
X00512501Y00085
X00487501
X00475001Y001
X00855Y002
Y00225
X0087Y002125
Y001875
X00885Y002
Y00225
X0087Y002375
X00795Y002875
X0083Y004101
X00855Y00475
Y005
X0087Y005125
Y004875
Y004625
X00885Y00475
Y005
X0076Y00475
X00745
Y00445
X0076
X00769924Y004025
X0071715Y004101
X006425Y0048
X006025Y00495
X005725
X00555103Y00470103
Y00450616
X005425Y004775
X00525Y004275
X005725Y00426982
X00585Y0054
X005875Y00585
X005625
X00575Y006
X0055
X005625Y00615
X005875
X006Y006
X0045
X00425
X004
X004125Y00585
X004375
Y00615
X004125
X00415Y0054
X004125Y004825
X0045Y004825
X00459897Y00470103
X004575Y004425
X00474Y004925
X003775Y0054
X0031875Y0054
X002825Y005325
Y005025
X00145Y005
Y00475
X0013Y004625
Y004875
Y005125
X00115Y005
Y00475
X0037Y004125
T02
X0022Y00194
Y00346
X005
Y0027
X0067Y003249
X007852Y0035
X00812497Y00545
X00774597Y00525
X00710398Y005246
X00684998
X00684998Y0055
X00710398
X005Y0046
X0022Y005175
T03
X0013Y0027
Y0035
X0087
Y0027
Y0043
X0013
T04
X00075Y00075
X00925
Y00625
X00075
M30
