G04*
G04 #@! TF.GenerationSoftware,Altium Limited,Altium Designer,18.1.7 (191)*
G04*
G04 Layer_Color=8421504*
%FSLAX44Y44*%
%MOMM*%
G71*
G01*
G75*
%ADD14R,1.5000X1.4000*%
%ADD15R,1.4000X1.5000*%
%ADD16R,2.5000X0.9000*%
%ADD17R,0.9000X2.5000*%
%ADD18R,5.0000X5.0000*%
%ADD19R,3.3000X3.3000*%
%ADD20R,1.2000X0.3000*%
%ADD21R,0.3000X1.2000*%
%ADD22R,1.8000X1.2000*%
%ADD23R,2.7000X3.6000*%
D14*
X822500Y497500D02*
D03*
Y477500D02*
D03*
X795000D02*
D03*
Y497500D02*
D03*
X432500Y410000D02*
D03*
Y430000D02*
D03*
X332500Y520000D02*
D03*
Y540000D02*
D03*
X520000D02*
D03*
Y560000D02*
D03*
X480000Y540000D02*
D03*
Y560000D02*
D03*
X572500Y480000D02*
D03*
Y460000D02*
D03*
X436250Y482500D02*
D03*
Y462500D02*
D03*
X602500Y480000D02*
D03*
Y460000D02*
D03*
X363750Y540000D02*
D03*
Y520000D02*
D03*
X795200Y250000D02*
D03*
Y270000D02*
D03*
D15*
X730000Y497500D02*
D03*
X710000D02*
D03*
X785000Y330000D02*
D03*
X805000D02*
D03*
X652500Y460001D02*
D03*
X632500D02*
D03*
X270000Y532500D02*
D03*
X250000D02*
D03*
X402498Y412500D02*
D03*
X382498D02*
D03*
X810000Y397500D02*
D03*
X830000D02*
D03*
X795000Y300000D02*
D03*
X775000D02*
D03*
X430000Y540000D02*
D03*
X450000D02*
D03*
X570000D02*
D03*
X550000D02*
D03*
X270000Y502500D02*
D03*
X250000D02*
D03*
D16*
X572500Y250000D02*
D03*
Y262700D02*
D03*
Y275400D02*
D03*
Y288100D02*
D03*
Y300800D02*
D03*
Y313500D02*
D03*
Y326200D02*
D03*
Y415100D02*
D03*
Y402400D02*
D03*
Y389700D02*
D03*
Y377000D02*
D03*
Y364300D02*
D03*
Y351600D02*
D03*
Y338900D02*
D03*
X747500D02*
D03*
Y351600D02*
D03*
Y364300D02*
D03*
Y377000D02*
D03*
Y389700D02*
D03*
Y402400D02*
D03*
Y415100D02*
D03*
Y326200D02*
D03*
Y313500D02*
D03*
Y300800D02*
D03*
Y288100D02*
D03*
Y275400D02*
D03*
Y262700D02*
D03*
Y250000D02*
D03*
D17*
X615550Y427600D02*
D03*
X602850D02*
D03*
X717150D02*
D03*
X628250D02*
D03*
X640950D02*
D03*
X653650D02*
D03*
X666350D02*
D03*
X679050D02*
D03*
X691750D02*
D03*
X704450D02*
D03*
D18*
X670000Y324900D02*
D03*
D19*
X500001Y459999D02*
D03*
D20*
X474000Y475000D02*
D03*
Y470000D02*
D03*
Y465000D02*
D03*
Y460000D02*
D03*
Y455000D02*
D03*
Y450000D02*
D03*
Y445000D02*
D03*
X526000Y445000D02*
D03*
Y450000D02*
D03*
Y455000D02*
D03*
Y460000D02*
D03*
Y465000D02*
D03*
Y470000D02*
D03*
Y475000D02*
D03*
D21*
X515000Y486000D02*
D03*
X510000D02*
D03*
X505000D02*
D03*
X500000D02*
D03*
X495000D02*
D03*
X490000D02*
D03*
X485000D02*
D03*
X515000Y434000D02*
D03*
X510000D02*
D03*
X505000D02*
D03*
X500000D02*
D03*
X495000D02*
D03*
X490000D02*
D03*
X485000D02*
D03*
D22*
X220000Y501500D02*
D03*
Y473500D02*
D03*
Y444000D02*
D03*
Y416000D02*
D03*
D23*
X471500Y600000D02*
D03*
X528500D02*
D03*
M02*
