G04*
G04 #@! TF.GenerationSoftware,Altium Limited,Altium Designer,18.1.7 (191)*
G04*
G04 Layer_Physical_Order=2*
G04 Layer_Color=16711680*
%FSLAX44Y44*%
%MOMM*%
G71*
G01*
G75*
%ADD24C,5.0000*%
%ADD35C,1.0000*%
%ADD41C,0.2500*%
%ADD42C,1.6000*%
%ADD43C,4.0000*%
%ADD44C,6.0000*%
G04:AMPARAMS|DCode=45|XSize=5mm|YSize=3mm|CornerRadius=1.5mm|HoleSize=0mm|Usage=FLASHONLY|Rotation=0.000|XOffset=0mm|YOffset=0mm|HoleType=Round|Shape=RoundedRectangle|*
%AMROUNDEDRECTD45*
21,1,5.0000,0.0000,0,0,0.0*
21,1,2.0000,3.0000,0,0,0.0*
1,1,3.0000,1.0000,0.0000*
1,1,3.0000,-1.0000,0.0000*
1,1,3.0000,-1.0000,0.0000*
1,1,3.0000,1.0000,0.0000*
%
%ADD45ROUNDEDRECTD45*%
%ADD46C,0.8000*%
G36*
X875143Y620638D02*
X875713Y616309D01*
X876658Y612047D01*
X877971Y607883D01*
X879641Y603849D01*
X881657Y599976D01*
X884003Y596294D01*
X886661Y592830D01*
X889611Y589611D01*
X892830Y586661D01*
X896294Y584003D01*
X899976Y581657D01*
X903849Y579641D01*
X907883Y577971D01*
X912047Y576658D01*
X916309Y575713D01*
X920638Y575143D01*
X924957Y574954D01*
Y444622D01*
X922750Y443299D01*
X919594Y440958D01*
X916682Y438318D01*
X914042Y435406D01*
X911701Y432250D01*
X909681Y428879D01*
X908000Y425326D01*
X906676Y421625D01*
X905721Y417813D01*
X905145Y413925D01*
X904952Y410000D01*
X905145Y406075D01*
X905721Y402187D01*
X906676Y398375D01*
X907722Y395452D01*
X907434Y395043D01*
X870000D01*
X866074Y394871D01*
X862178Y394359D01*
X858342Y393508D01*
X854594Y392327D01*
X850964Y390823D01*
X847479Y389008D01*
X844165Y386897D01*
X841047Y384505D01*
X838150Y381850D01*
X835495Y378953D01*
X833103Y375835D01*
X830992Y372522D01*
X829177Y369036D01*
X827674Y365406D01*
X826492Y361658D01*
X825641Y357822D01*
X825128Y353926D01*
X824957Y350000D01*
X825128Y346074D01*
X825641Y342178D01*
X826492Y338342D01*
X827674Y334594D01*
X829177Y330964D01*
X830992Y327479D01*
X833103Y324165D01*
X835495Y321047D01*
X838150Y318150D01*
X840000Y316455D01*
Y303545D01*
X838150Y301850D01*
X835495Y298953D01*
X833103Y295835D01*
X830992Y292521D01*
X829177Y289036D01*
X827674Y285406D01*
X826492Y281658D01*
X825641Y277822D01*
X825128Y273926D01*
X824957Y270000D01*
Y237500D01*
X495000Y237500D01*
Y237500D01*
X494500Y237500D01*
X175043Y237500D01*
Y270000D01*
X174872Y273926D01*
X174359Y277822D01*
X173508Y281658D01*
X172327Y285406D01*
X170823Y289036D01*
X169008Y292521D01*
X166897Y295835D01*
X164505Y298953D01*
X161850Y301850D01*
X160170Y303389D01*
Y316611D01*
X161850Y318150D01*
X164505Y321047D01*
X166897Y324165D01*
X169008Y327479D01*
X170823Y330964D01*
X172327Y334594D01*
X173508Y338342D01*
X174359Y342178D01*
X174872Y346074D01*
X175043Y350000D01*
X174872Y353926D01*
X174359Y357822D01*
X173508Y361658D01*
X172327Y365406D01*
X170823Y369036D01*
X169008Y372522D01*
X166897Y375835D01*
X164505Y378953D01*
X161850Y381850D01*
X160170Y383389D01*
X160170Y396611D01*
X161850Y398150D01*
X164505Y401047D01*
X166897Y404165D01*
X169008Y407479D01*
X170823Y410964D01*
X172327Y414594D01*
X173508Y418342D01*
X174359Y422178D01*
X174872Y426074D01*
X175043Y430000D01*
Y499924D01*
X175024Y500350D01*
X175177Y504245D01*
X175686Y508539D01*
X176529Y512780D01*
X177703Y516941D01*
X179199Y520998D01*
X181010Y524925D01*
X183122Y528697D01*
X185525Y532292D01*
X188202Y535688D01*
X191137Y538863D01*
X194312Y541798D01*
X197708Y544475D01*
X201303Y546878D01*
X205075Y548990D01*
X209002Y550801D01*
X213059Y552297D01*
X217220Y553471D01*
X221461Y554314D01*
X225755Y554823D01*
X229650Y554976D01*
X230076Y554957D01*
X460000D01*
X463926Y555129D01*
X467822Y555641D01*
X471658Y556492D01*
X475406Y557673D01*
X479036Y559177D01*
X482521Y560992D01*
X485835Y563103D01*
X488953Y565495D01*
X491850Y568150D01*
X494505Y571047D01*
X496897Y574165D01*
X499008Y577479D01*
X500823Y580964D01*
X502327Y584594D01*
X503508Y588342D01*
X504359Y592178D01*
X504871Y596074D01*
X505043Y600000D01*
X504878Y603773D01*
X505006Y605076D01*
X505454Y607327D01*
X506120Y609522D01*
X506998Y611642D01*
X508080Y613666D01*
X509355Y615574D01*
X510811Y617348D01*
X512434Y618971D01*
X514207Y620426D01*
X516115Y621701D01*
X518139Y622783D01*
X520259Y623661D01*
X522455Y624327D01*
X524706Y624775D01*
X526554Y624957D01*
X874954D01*
X875143Y620638D01*
D02*
G37*
%LPC*%
G36*
X589250Y621262D02*
Y616750D01*
X593762D01*
X593534Y617500D01*
X592931Y618629D01*
X592118Y619618D01*
X591129Y620431D01*
X590000Y621034D01*
X589250Y621262D01*
D02*
G37*
G36*
X585750D02*
X585000Y621034D01*
X583871Y620431D01*
X582882Y619618D01*
X582069Y618629D01*
X581466Y617500D01*
X581238Y616750D01*
X585750D01*
Y621262D01*
D02*
G37*
G36*
X564250D02*
Y616750D01*
X568762D01*
X568534Y617500D01*
X567931Y618629D01*
X567118Y619618D01*
X566129Y620431D01*
X565000Y621034D01*
X564250Y621262D01*
D02*
G37*
G36*
X560750D02*
X560000Y621034D01*
X558871Y620431D01*
X557882Y619618D01*
X557069Y618629D01*
X556466Y617500D01*
X556238Y616750D01*
X560750D01*
Y621262D01*
D02*
G37*
G36*
X593762Y613250D02*
X589250D01*
Y608738D01*
X590000Y608966D01*
X591129Y609569D01*
X592118Y610382D01*
X592931Y611371D01*
X593534Y612500D01*
X593762Y613250D01*
D02*
G37*
G36*
X585750D02*
X581238D01*
X581466Y612500D01*
X582069Y611371D01*
X582882Y610382D01*
X583871Y609569D01*
X585000Y608966D01*
X585750Y608738D01*
Y613250D01*
D02*
G37*
G36*
X568762D02*
X564250D01*
Y608738D01*
X565000Y608966D01*
X566129Y609569D01*
X567118Y610382D01*
X567931Y611371D01*
X568534Y612500D01*
X568762Y613250D01*
D02*
G37*
G36*
X560750D02*
X556238D01*
X556466Y612500D01*
X557069Y611371D01*
X557882Y610382D01*
X558871Y609569D01*
X560000Y608966D01*
X560750Y608738D01*
Y613250D01*
D02*
G37*
G36*
X601750Y606262D02*
Y601750D01*
X606262D01*
X606034Y602499D01*
X605431Y603629D01*
X604618Y604618D01*
X603629Y605431D01*
X602500Y606034D01*
X601750Y606262D01*
D02*
G37*
G36*
X598250D02*
X597500Y606034D01*
X596371Y605431D01*
X595382Y604618D01*
X594569Y603629D01*
X593966Y602499D01*
X593738Y601750D01*
X598250D01*
Y606262D01*
D02*
G37*
G36*
X576750D02*
Y601750D01*
X581262D01*
X581034Y602499D01*
X580431Y603629D01*
X579618Y604618D01*
X578629Y605431D01*
X577500Y606034D01*
X576750Y606262D01*
D02*
G37*
G36*
X573250D02*
X572500Y606034D01*
X571371Y605431D01*
X570382Y604618D01*
X569569Y603629D01*
X568966Y602499D01*
X568738Y601750D01*
X573250D01*
Y606262D01*
D02*
G37*
G36*
X551750D02*
Y601750D01*
X556262D01*
X556034Y602499D01*
X555431Y603629D01*
X554618Y604618D01*
X553629Y605431D01*
X552500Y606034D01*
X551750Y606262D01*
D02*
G37*
G36*
X548250D02*
X547500Y606034D01*
X546371Y605431D01*
X545382Y604618D01*
X544569Y603629D01*
X543966Y602499D01*
X543738Y601750D01*
X548250D01*
Y606262D01*
D02*
G37*
G36*
X606262Y598250D02*
X601750D01*
Y593738D01*
X602500Y593966D01*
X603629Y594569D01*
X604618Y595382D01*
X605431Y596371D01*
X606034Y597500D01*
X606262Y598250D01*
D02*
G37*
G36*
X598250D02*
X593738D01*
X593966Y597500D01*
X594569Y596371D01*
X595382Y595382D01*
X596371Y594569D01*
X597500Y593966D01*
X598250Y593738D01*
Y598250D01*
D02*
G37*
G36*
X581262D02*
X576750D01*
Y593738D01*
X577500Y593966D01*
X578629Y594569D01*
X579618Y595382D01*
X580431Y596371D01*
X581034Y597500D01*
X581262Y598250D01*
D02*
G37*
G36*
X573250D02*
X568738D01*
X568966Y597500D01*
X569569Y596371D01*
X570382Y595382D01*
X571371Y594569D01*
X572500Y593966D01*
X573250Y593738D01*
Y598250D01*
D02*
G37*
G36*
X556262D02*
X551750D01*
Y593738D01*
X552500Y593966D01*
X553629Y594569D01*
X554618Y595382D01*
X555431Y596371D01*
X556034Y597500D01*
X556262Y598250D01*
D02*
G37*
G36*
X548250D02*
X543738D01*
X543966Y597500D01*
X544569Y596371D01*
X545382Y595382D01*
X546371Y594569D01*
X547500Y593966D01*
X548250Y593738D01*
Y598250D01*
D02*
G37*
G36*
X589250Y591262D02*
Y586750D01*
X593762D01*
X593534Y587499D01*
X592931Y588629D01*
X592118Y589618D01*
X591129Y590431D01*
X590000Y591034D01*
X589250Y591262D01*
D02*
G37*
G36*
X585750D02*
X585000Y591034D01*
X583871Y590431D01*
X582882Y589618D01*
X582069Y588629D01*
X581466Y587499D01*
X581238Y586750D01*
X585750D01*
Y591262D01*
D02*
G37*
G36*
X564250D02*
Y586750D01*
X568762D01*
X568534Y587499D01*
X567931Y588629D01*
X567118Y589618D01*
X566129Y590431D01*
X565000Y591034D01*
X564250Y591262D01*
D02*
G37*
G36*
X560750D02*
X560000Y591034D01*
X558871Y590431D01*
X557882Y589618D01*
X557069Y588629D01*
X556466Y587499D01*
X556238Y586750D01*
X560750D01*
Y591262D01*
D02*
G37*
G36*
X593762Y583250D02*
X589250D01*
Y578738D01*
X590000Y578966D01*
X591129Y579569D01*
X592118Y580382D01*
X592931Y581371D01*
X593534Y582500D01*
X593762Y583250D01*
D02*
G37*
G36*
X585750D02*
X581238D01*
X581466Y582500D01*
X582069Y581371D01*
X582882Y580382D01*
X583871Y579569D01*
X585000Y578966D01*
X585750Y578738D01*
Y583250D01*
D02*
G37*
G36*
X568762D02*
X564250D01*
Y578738D01*
X565000Y578966D01*
X566129Y579569D01*
X567118Y580382D01*
X567931Y581371D01*
X568534Y582500D01*
X568762Y583250D01*
D02*
G37*
G36*
X560750D02*
X556238D01*
X556466Y582500D01*
X557069Y581371D01*
X557882Y580382D01*
X558871Y579569D01*
X560000Y578966D01*
X560750Y578738D01*
Y583250D01*
D02*
G37*
G36*
X380500Y546262D02*
Y541750D01*
X385012D01*
X384784Y542500D01*
X384181Y543629D01*
X383368Y544618D01*
X382379Y545431D01*
X381250Y546034D01*
X380500Y546262D01*
D02*
G37*
G36*
X377000D02*
X376250Y546034D01*
X375121Y545431D01*
X374132Y544618D01*
X373319Y543629D01*
X372716Y542500D01*
X372488Y541750D01*
X377000D01*
Y546262D01*
D02*
G37*
G36*
X319250D02*
Y541750D01*
X323762D01*
X323534Y542500D01*
X322931Y543629D01*
X322118Y544618D01*
X321129Y545431D01*
X320000Y546034D01*
X319250Y546262D01*
D02*
G37*
G36*
X315750D02*
X315000Y546034D01*
X313871Y545431D01*
X312882Y544618D01*
X312069Y543629D01*
X311466Y542500D01*
X311238Y541750D01*
X315750D01*
Y546262D01*
D02*
G37*
G36*
X586750Y546262D02*
Y541750D01*
X591262D01*
X591034Y542499D01*
X590431Y543629D01*
X589618Y544618D01*
X588629Y545431D01*
X587500Y546034D01*
X586750Y546262D01*
D02*
G37*
G36*
X583250D02*
X582500Y546034D01*
X581371Y545431D01*
X580382Y544618D01*
X579569Y543629D01*
X578966Y542499D01*
X578738Y541750D01*
X583250D01*
Y546262D01*
D02*
G37*
G36*
X416750D02*
Y541750D01*
X421262D01*
X421034Y542499D01*
X420431Y543629D01*
X419618Y544618D01*
X418629Y545431D01*
X417500Y546034D01*
X416750Y546262D01*
D02*
G37*
G36*
X413250D02*
X412500Y546034D01*
X411371Y545431D01*
X410382Y544618D01*
X409569Y543629D01*
X408966Y542499D01*
X408738Y541750D01*
X413250D01*
Y546262D01*
D02*
G37*
G36*
X284250Y538762D02*
Y534250D01*
X288762D01*
X288534Y535000D01*
X287931Y536129D01*
X287118Y537118D01*
X286129Y537931D01*
X285000Y538534D01*
X284250Y538762D01*
D02*
G37*
G36*
X280750D02*
X280000Y538534D01*
X278871Y537931D01*
X277882Y537118D01*
X277069Y536129D01*
X276466Y535000D01*
X276238Y534250D01*
X280750D01*
Y538762D01*
D02*
G37*
G36*
X385012Y538250D02*
X380500D01*
Y533738D01*
X381250Y533966D01*
X382379Y534569D01*
X383368Y535382D01*
X384181Y536371D01*
X384784Y537501D01*
X385012Y538250D01*
D02*
G37*
G36*
X377000D02*
X372488D01*
X372716Y537501D01*
X373319Y536371D01*
X374132Y535382D01*
X375121Y534569D01*
X376250Y533966D01*
X377000Y533738D01*
Y538250D01*
D02*
G37*
G36*
X323762D02*
X319250D01*
Y533738D01*
X320000Y533966D01*
X321129Y534569D01*
X322118Y535382D01*
X322931Y536371D01*
X323534Y537501D01*
X323762Y538250D01*
D02*
G37*
G36*
X315750D02*
X311238D01*
X311466Y537501D01*
X312069Y536371D01*
X312882Y535382D01*
X313871Y534569D01*
X315000Y533966D01*
X315750Y533738D01*
Y538250D01*
D02*
G37*
G36*
X591262Y538250D02*
X586750D01*
Y533738D01*
X587500Y533966D01*
X588629Y534569D01*
X589618Y535382D01*
X590431Y536371D01*
X591034Y537500D01*
X591262Y538250D01*
D02*
G37*
G36*
X583250D02*
X578738D01*
X578966Y537500D01*
X579569Y536371D01*
X580382Y535382D01*
X581371Y534569D01*
X582500Y533966D01*
X583250Y533738D01*
Y538250D01*
D02*
G37*
G36*
X421262D02*
X416750D01*
Y533738D01*
X417500Y533966D01*
X418629Y534569D01*
X419618Y535382D01*
X420431Y536371D01*
X421034Y537500D01*
X421262Y538250D01*
D02*
G37*
G36*
X413250D02*
X408738D01*
X408966Y537500D01*
X409569Y536371D01*
X410382Y535382D01*
X411371Y534569D01*
X412500Y533966D01*
X413250Y533738D01*
Y538250D01*
D02*
G37*
G36*
X288762Y530750D02*
X284250D01*
Y526238D01*
X285000Y526466D01*
X286129Y527069D01*
X287118Y527882D01*
X287931Y528871D01*
X288534Y530000D01*
X288762Y530750D01*
D02*
G37*
G36*
X280750D02*
X276238D01*
X276466Y530000D01*
X277069Y528871D01*
X277882Y527882D01*
X278871Y527069D01*
X280000Y526466D01*
X280750Y526238D01*
Y530750D01*
D02*
G37*
G36*
X871750Y518762D02*
Y514250D01*
X876262D01*
X876034Y515000D01*
X875431Y516129D01*
X874619Y517118D01*
X873629Y517931D01*
X872499Y518534D01*
X871750Y518762D01*
D02*
G37*
G36*
X868250D02*
X867501Y518534D01*
X866371Y517931D01*
X865382Y517118D01*
X864569Y516129D01*
X863966Y515000D01*
X863738Y514250D01*
X868250D01*
Y518762D01*
D02*
G37*
G36*
X774597Y537640D02*
X772557Y537480D01*
X770568Y537002D01*
X768677Y536219D01*
X766933Y535150D01*
X765377Y533821D01*
X764048Y532265D01*
X762979Y530520D01*
X762195Y528630D01*
X761718Y526640D01*
X761557Y524600D01*
X761718Y522560D01*
X762195Y520570D01*
X762979Y518680D01*
X764048Y516935D01*
X765377Y515379D01*
X766933Y514050D01*
X768677Y512981D01*
X770568Y512198D01*
X772557Y511720D01*
X774597Y511560D01*
X776637Y511720D01*
X778627Y512198D01*
X780518Y512981D01*
X782262Y514050D01*
X783818Y515379D01*
X785147Y516935D01*
X786216Y518680D01*
X786999Y520570D01*
X787477Y522560D01*
X787637Y524600D01*
X787477Y526640D01*
X786999Y528630D01*
X786216Y530520D01*
X785147Y532265D01*
X783818Y533821D01*
X782262Y535150D01*
X780518Y536219D01*
X778627Y537002D01*
X776637Y537480D01*
X774597Y537640D01*
D02*
G37*
G36*
X628279Y569269D02*
X568471D01*
X566510Y569076D01*
X564625Y568504D01*
X562888Y567576D01*
X561366Y566326D01*
X535088Y540048D01*
X460000D01*
X458040Y539855D01*
X456155Y539283D01*
X454417Y538355D01*
X452895Y537105D01*
X405395Y489605D01*
X404145Y488083D01*
X403217Y486345D01*
X402645Y484460D01*
X402452Y482500D01*
X402645Y480540D01*
X403217Y478655D01*
X404145Y476917D01*
X405395Y475395D01*
X406917Y474145D01*
X408655Y473217D01*
X410540Y472645D01*
X412500Y472452D01*
X414460Y472645D01*
X416345Y473217D01*
X418083Y474145D01*
X419605Y475395D01*
X464162Y519952D01*
X539250D01*
X541210Y520145D01*
X543095Y520717D01*
X544832Y521645D01*
X546355Y522895D01*
X572633Y549172D01*
X624117D01*
X655795Y517495D01*
X657318Y516245D01*
X659055Y515317D01*
X660940Y514745D01*
X662900Y514552D01*
X676746D01*
X677333Y514050D01*
X679078Y512981D01*
X680968Y512198D01*
X682958Y511720D01*
X684998Y511560D01*
X687038Y511720D01*
X689027Y512198D01*
X690918Y512981D01*
X692663Y514050D01*
X694219Y515379D01*
X695547Y516935D01*
X696617Y518680D01*
X697400Y520570D01*
X697448Y520770D01*
X697948D01*
X697996Y520570D01*
X698779Y518680D01*
X699848Y516935D01*
X701177Y515379D01*
X702733Y514050D01*
X704477Y512981D01*
X706368Y512198D01*
X708358Y511720D01*
X710398Y511560D01*
X712438Y511720D01*
X714427Y512198D01*
X716318Y512981D01*
X718063Y514050D01*
X719618Y515379D01*
X720947Y516935D01*
X722017Y518680D01*
X722800Y520570D01*
X723277Y522560D01*
X723438Y524600D01*
X723277Y526640D01*
X722800Y528630D01*
X722017Y530520D01*
X720947Y532265D01*
X719618Y533821D01*
X718063Y535150D01*
X716318Y536219D01*
X714427Y537002D01*
X714227Y537050D01*
Y537550D01*
X714427Y537598D01*
X716318Y538381D01*
X718063Y539450D01*
X719619Y540779D01*
X720948Y542335D01*
X722017Y544080D01*
X722800Y545970D01*
X723278Y547960D01*
X723438Y550000D01*
X723278Y552040D01*
X722800Y554030D01*
X722017Y555920D01*
X720948Y557665D01*
X719619Y559221D01*
X718063Y560550D01*
X716318Y561619D01*
X714427Y562402D01*
X712438Y562880D01*
X710398Y563040D01*
X708358Y562880D01*
X706368Y562402D01*
X704478Y561619D01*
X702733Y560550D01*
X701177Y559221D01*
X699848Y557665D01*
X698779Y555920D01*
X697996Y554030D01*
X697518Y552040D01*
X697358Y550000D01*
X697518Y547960D01*
X697996Y545970D01*
X698779Y544080D01*
X699848Y542335D01*
X701177Y540779D01*
X702733Y539450D01*
X704478Y538381D01*
X706368Y537598D01*
X706568Y537550D01*
Y537050D01*
X706368Y537002D01*
X704477Y536219D01*
X702733Y535150D01*
X701177Y533821D01*
X699848Y532265D01*
X698779Y530520D01*
X697996Y528630D01*
X697948Y528430D01*
X697448D01*
X697400Y528630D01*
X696617Y530520D01*
X695547Y532265D01*
X694219Y533821D01*
X692663Y535150D01*
X690918Y536219D01*
X689027Y537002D01*
X687038Y537480D01*
X684998Y537640D01*
X682958Y537480D01*
X680968Y537002D01*
X679078Y536219D01*
X677333Y535150D01*
X676746Y534648D01*
X667062D01*
X635384Y566326D01*
X633862Y567576D01*
X632125Y568504D01*
X630240Y569076D01*
X628279Y569269D01*
D02*
G37*
G36*
X876262Y510750D02*
X871750D01*
Y506238D01*
X872499Y506466D01*
X873629Y507069D01*
X874619Y507882D01*
X875431Y508871D01*
X876034Y510000D01*
X876262Y510750D01*
D02*
G37*
G36*
X868250D02*
X863738D01*
X863966Y510000D01*
X864569Y508871D01*
X865382Y507882D01*
X866371Y507069D01*
X867501Y506466D01*
X868250Y506238D01*
Y510750D01*
D02*
G37*
G36*
X220000Y530540D02*
X217960Y530380D01*
X215970Y529902D01*
X214080Y529119D01*
X212335Y528050D01*
X210779Y526721D01*
X209450Y525165D01*
X208381Y523420D01*
X207598Y521530D01*
X207120Y519540D01*
X206960Y517500D01*
X207120Y515460D01*
X207598Y513470D01*
X208381Y511580D01*
X209450Y509835D01*
X210779Y508279D01*
X212335Y506950D01*
X214080Y505881D01*
X215970Y505098D01*
X217960Y504620D01*
X220000Y504460D01*
X222040Y504620D01*
X224030Y505098D01*
X225920Y505881D01*
X227665Y506950D01*
X229221Y508279D01*
X230550Y509835D01*
X231619Y511580D01*
X232402Y513470D01*
X232880Y515460D01*
X233040Y517500D01*
X232880Y519540D01*
X232402Y521530D01*
X231619Y523420D01*
X230550Y525165D01*
X229221Y526721D01*
X227665Y528050D01*
X225920Y529119D01*
X224030Y529902D01*
X222040Y530380D01*
X220000Y530540D01*
D02*
G37*
G36*
X284250Y508762D02*
Y504250D01*
X288762D01*
X288534Y505000D01*
X287931Y506129D01*
X287118Y507118D01*
X286129Y507931D01*
X285000Y508534D01*
X284250Y508762D01*
D02*
G37*
G36*
X280750D02*
X280000Y508534D01*
X278871Y507931D01*
X277882Y507118D01*
X277069Y506129D01*
X276466Y505000D01*
X276238Y504250D01*
X280750D01*
Y508762D01*
D02*
G37*
G36*
X886750Y506262D02*
Y501750D01*
X891262D01*
X891034Y502500D01*
X890431Y503629D01*
X889619Y504618D01*
X888629Y505431D01*
X887499Y506034D01*
X886750Y506262D01*
D02*
G37*
G36*
X883250D02*
X882501Y506034D01*
X881371Y505431D01*
X880382Y504618D01*
X879569Y503629D01*
X878966Y502500D01*
X878738Y501750D01*
X883250D01*
Y506262D01*
D02*
G37*
G36*
X856750D02*
Y501750D01*
X861262D01*
X861034Y502500D01*
X860431Y503629D01*
X859618Y504618D01*
X858629Y505431D01*
X857499Y506034D01*
X856750Y506262D01*
D02*
G37*
G36*
X853250D02*
X852501Y506034D01*
X851371Y505431D01*
X850382Y504618D01*
X849569Y503629D01*
X848966Y502500D01*
X848738Y501750D01*
X853250D01*
Y506262D01*
D02*
G37*
G36*
X604250Y501262D02*
Y496750D01*
X608761D01*
X608534Y497499D01*
X607931Y498629D01*
X607118Y499618D01*
X606129Y500431D01*
X604999Y501034D01*
X604250Y501262D01*
D02*
G37*
G36*
X600750D02*
X600000Y501034D01*
X598871Y500431D01*
X597882Y499618D01*
X597069Y498629D01*
X596466Y497499D01*
X596238Y496750D01*
X600750D01*
Y501262D01*
D02*
G37*
G36*
X574250D02*
Y496750D01*
X578762D01*
X578534Y497499D01*
X577931Y498629D01*
X577118Y499618D01*
X576129Y500431D01*
X575000Y501034D01*
X574250Y501262D01*
D02*
G37*
G36*
X570750D02*
X570000Y501034D01*
X568871Y500431D01*
X567882Y499618D01*
X567069Y498629D01*
X566466Y497499D01*
X566238Y496750D01*
X570750D01*
Y501262D01*
D02*
G37*
G36*
X288762Y500750D02*
X284250D01*
Y496238D01*
X285000Y496466D01*
X286129Y497069D01*
X287118Y497882D01*
X287931Y498871D01*
X288534Y500000D01*
X288762Y500750D01*
D02*
G37*
G36*
X280750D02*
X276238D01*
X276466Y500000D01*
X277069Y498871D01*
X277882Y497882D01*
X278871Y497069D01*
X280000Y496466D01*
X280750Y496238D01*
Y500750D01*
D02*
G37*
G36*
X475750Y498762D02*
Y494250D01*
X480262D01*
X480034Y495000D01*
X479431Y496129D01*
X478618Y497118D01*
X477629Y497931D01*
X476499Y498534D01*
X475750Y498762D01*
D02*
G37*
G36*
X472250D02*
X471501Y498534D01*
X470371Y497931D01*
X469382Y497118D01*
X468569Y496129D01*
X467966Y495000D01*
X467738Y494250D01*
X472250D01*
Y498762D01*
D02*
G37*
G36*
X891262Y498250D02*
X886750D01*
Y493738D01*
X887499Y493966D01*
X888629Y494569D01*
X889619Y495382D01*
X890431Y496371D01*
X891034Y497500D01*
X891262Y498250D01*
D02*
G37*
G36*
X883250D02*
X878738D01*
X878966Y497500D01*
X879569Y496371D01*
X880382Y495382D01*
X881371Y494569D01*
X882501Y493966D01*
X883250Y493738D01*
Y498250D01*
D02*
G37*
G36*
X861262D02*
X856750D01*
Y493738D01*
X857499Y493966D01*
X858629Y494569D01*
X859618Y495382D01*
X860431Y496371D01*
X861034Y497500D01*
X861262Y498250D01*
D02*
G37*
G36*
X853250D02*
X848738D01*
X848966Y497500D01*
X849569Y496371D01*
X850382Y495382D01*
X851371Y494569D01*
X852501Y493966D01*
X853250Y493738D01*
Y498250D01*
D02*
G37*
G36*
X555103Y518040D02*
X553063Y517880D01*
X551073Y517402D01*
X549182Y516619D01*
X547438Y515550D01*
X545882Y514221D01*
X544553Y512665D01*
X543484Y510920D01*
X542701Y509030D01*
X542223Y507040D01*
X542062Y505000D01*
X542223Y502960D01*
X542701Y500970D01*
X543484Y499080D01*
X544553Y497335D01*
X545882Y495779D01*
X547438Y494450D01*
X549182Y493381D01*
X551073Y492598D01*
X553063Y492120D01*
X555103Y491960D01*
X557142Y492120D01*
X559132Y492598D01*
X561023Y493381D01*
X562767Y494450D01*
X564323Y495779D01*
X565652Y497335D01*
X566721Y499080D01*
X567505Y500970D01*
X567982Y502960D01*
X568143Y505000D01*
X567982Y507040D01*
X567505Y509030D01*
X566721Y510920D01*
X565652Y512665D01*
X564323Y514221D01*
X562767Y515550D01*
X561023Y516619D01*
X559132Y517402D01*
X557142Y517880D01*
X555103Y518040D01*
D02*
G37*
G36*
X871750Y493762D02*
Y489250D01*
X876262D01*
X876034Y490000D01*
X875431Y491129D01*
X874619Y492118D01*
X873629Y492931D01*
X872499Y493534D01*
X871750Y493762D01*
D02*
G37*
G36*
X868250D02*
X867501Y493534D01*
X866371Y492931D01*
X865382Y492118D01*
X864569Y491129D01*
X863966Y490000D01*
X863738Y489250D01*
X868250D01*
Y493762D01*
D02*
G37*
G36*
X608761Y493250D02*
X604250D01*
Y488738D01*
X604999Y488966D01*
X606129Y489569D01*
X607118Y490382D01*
X607931Y491371D01*
X608534Y492500D01*
X608761Y493250D01*
D02*
G37*
G36*
X600750D02*
X596238D01*
X596466Y492500D01*
X597069Y491371D01*
X597882Y490382D01*
X598871Y489569D01*
X600000Y488966D01*
X600750Y488738D01*
Y493250D01*
D02*
G37*
G36*
X578762D02*
X574250D01*
Y488738D01*
X575000Y488966D01*
X576129Y489569D01*
X577118Y490382D01*
X577931Y491371D01*
X578534Y492500D01*
X578762Y493250D01*
D02*
G37*
G36*
X570750D02*
X566238D01*
X566466Y492500D01*
X567069Y491371D01*
X567882Y490382D01*
X568871Y489569D01*
X570000Y488966D01*
X570750Y488738D01*
Y493250D01*
D02*
G37*
G36*
X480262Y490750D02*
X475750D01*
Y486238D01*
X476499Y486466D01*
X477629Y487069D01*
X478618Y487882D01*
X479431Y488871D01*
X480034Y490000D01*
X480262Y490750D01*
D02*
G37*
G36*
X472250D02*
X467738D01*
X467966Y490000D01*
X468569Y488871D01*
X469382Y487882D01*
X470371Y487069D01*
X471501Y486466D01*
X472250Y486238D01*
Y490750D01*
D02*
G37*
G36*
X452750Y488762D02*
Y484250D01*
X457262D01*
X457034Y484999D01*
X456431Y486129D01*
X455618Y487118D01*
X454629Y487931D01*
X453499Y488534D01*
X452750Y488762D01*
D02*
G37*
G36*
X449250D02*
X448501Y488534D01*
X447371Y487931D01*
X446382Y487118D01*
X445569Y486129D01*
X444966Y484999D01*
X444738Y484250D01*
X449250D01*
Y488762D01*
D02*
G37*
G36*
X876262Y485750D02*
X871750D01*
Y481238D01*
X872499Y481466D01*
X873629Y482069D01*
X874619Y482882D01*
X875431Y483871D01*
X876034Y485000D01*
X876262Y485750D01*
D02*
G37*
G36*
X868250D02*
X863738D01*
X863966Y485000D01*
X864569Y483871D01*
X865382Y482882D01*
X866371Y482069D01*
X867501Y481466D01*
X868250Y481238D01*
Y485750D01*
D02*
G37*
G36*
X760000Y495043D02*
X758236Y494870D01*
X756539Y494355D01*
X754976Y493519D01*
X753605Y492395D01*
X752481Y491024D01*
X751645Y489461D01*
X751130Y487764D01*
X750956Y486000D01*
X751130Y484236D01*
X751645Y482539D01*
X752481Y480976D01*
X753605Y479605D01*
X753720Y479511D01*
Y478839D01*
X753220Y478714D01*
X752519Y480024D01*
X751395Y481395D01*
X750024Y482519D01*
X748461Y483355D01*
X746764Y483870D01*
X745000Y484044D01*
X743236Y483870D01*
X741539Y483355D01*
X739976Y482519D01*
X738605Y481395D01*
X737481Y480024D01*
X736645Y478461D01*
X736130Y476764D01*
X735956Y475000D01*
X736130Y473236D01*
X736645Y471539D01*
X737481Y469976D01*
X738605Y468605D01*
X738720Y468511D01*
Y451489D01*
X738605Y451395D01*
X737481Y450024D01*
X736645Y448461D01*
X736130Y446764D01*
X735956Y445000D01*
X736130Y443236D01*
X736645Y441539D01*
X737481Y439976D01*
X738605Y438605D01*
X739976Y437481D01*
X741539Y436645D01*
X743236Y436130D01*
X745000Y435956D01*
X746764Y436130D01*
X748461Y436645D01*
X750024Y437481D01*
X751395Y438605D01*
X752250Y439647D01*
X752750D01*
X753605Y438605D01*
X754976Y437481D01*
X756539Y436645D01*
X758236Y436130D01*
X760000Y435956D01*
X761764Y436130D01*
X763461Y436645D01*
X765024Y437481D01*
X766395Y438605D01*
X767519Y439976D01*
X768355Y441539D01*
X768870Y443236D01*
X769044Y445000D01*
X768870Y446764D01*
X768355Y448461D01*
X767519Y450024D01*
X766395Y451395D01*
X766280Y451489D01*
Y479511D01*
X766395Y479605D01*
X767519Y480976D01*
X768355Y482539D01*
X768870Y484236D01*
X769044Y486000D01*
X768870Y487764D01*
X768355Y489461D01*
X767519Y491024D01*
X766395Y492395D01*
X765024Y493519D01*
X763461Y494355D01*
X761764Y494870D01*
X760000Y495043D01*
D02*
G37*
G36*
X886750Y481262D02*
Y476750D01*
X891262D01*
X891034Y477500D01*
X890431Y478629D01*
X889619Y479618D01*
X888629Y480431D01*
X887499Y481034D01*
X886750Y481262D01*
D02*
G37*
G36*
X883250D02*
X882501Y481034D01*
X881371Y480431D01*
X880382Y479618D01*
X879569Y478629D01*
X878966Y477500D01*
X878738Y476750D01*
X883250D01*
Y481262D01*
D02*
G37*
G36*
X856750D02*
Y476750D01*
X861262D01*
X861034Y477500D01*
X860431Y478629D01*
X859618Y479618D01*
X858629Y480431D01*
X857499Y481034D01*
X856750Y481262D01*
D02*
G37*
G36*
X853250D02*
X852501Y481034D01*
X851371Y480431D01*
X850382Y479618D01*
X849569Y478629D01*
X848966Y477500D01*
X848738Y476750D01*
X853250D01*
Y481262D01*
D02*
G37*
G36*
X457262Y480750D02*
X452750D01*
Y476238D01*
X453499Y476466D01*
X454629Y477069D01*
X455618Y477882D01*
X456431Y478871D01*
X457034Y480000D01*
X457262Y480750D01*
D02*
G37*
G36*
X449250D02*
X444738D01*
X444966Y480000D01*
X445569Y478871D01*
X446382Y477882D01*
X447371Y477069D01*
X448501Y476466D01*
X449250Y476238D01*
Y480750D01*
D02*
G37*
G36*
X461647Y476364D02*
Y471852D01*
X466159D01*
X465932Y472602D01*
X465328Y473731D01*
X464516Y474721D01*
X463526Y475533D01*
X462397Y476137D01*
X461647Y476364D01*
D02*
G37*
G36*
X458148D02*
X457398Y476137D01*
X456269Y475533D01*
X455279Y474721D01*
X454467Y473731D01*
X453863Y472602D01*
X453636Y471852D01*
X458148D01*
Y476364D01*
D02*
G37*
G36*
X891262Y473250D02*
X886750D01*
Y468738D01*
X887499Y468966D01*
X888629Y469569D01*
X889619Y470382D01*
X890431Y471371D01*
X891034Y472500D01*
X891262Y473250D01*
D02*
G37*
G36*
X883250D02*
X878738D01*
X878966Y472500D01*
X879569Y471371D01*
X880382Y470382D01*
X881371Y469569D01*
X882501Y468966D01*
X883250Y468738D01*
Y473250D01*
D02*
G37*
G36*
X861262D02*
X856750D01*
Y468738D01*
X857499Y468966D01*
X858629Y469569D01*
X859618Y470382D01*
X860431Y471371D01*
X861034Y472500D01*
X861262Y473250D01*
D02*
G37*
G36*
X853250D02*
X848738D01*
X848966Y472500D01*
X849569Y471371D01*
X850382Y470382D01*
X851371Y469569D01*
X852501Y468966D01*
X853250Y468738D01*
Y473250D01*
D02*
G37*
G36*
X871750Y468762D02*
Y464250D01*
X876262D01*
X876034Y465000D01*
X875431Y466129D01*
X874619Y467118D01*
X873629Y467931D01*
X872499Y468534D01*
X871750Y468762D01*
D02*
G37*
G36*
X868250D02*
X867501Y468534D01*
X866371Y467931D01*
X865382Y467118D01*
X864569Y466129D01*
X863966Y465000D01*
X863738Y464250D01*
X868250D01*
Y468762D01*
D02*
G37*
G36*
X824250D02*
Y464250D01*
X828762D01*
X828534Y465000D01*
X827931Y466129D01*
X827118Y467118D01*
X826129Y467931D01*
X824999Y468534D01*
X824250Y468762D01*
D02*
G37*
G36*
X820750D02*
X820001Y468534D01*
X818871Y467931D01*
X817882Y467118D01*
X817069Y466129D01*
X816466Y465000D01*
X816238Y464250D01*
X820750D01*
Y468762D01*
D02*
G37*
G36*
X466159Y468353D02*
X461647D01*
Y463841D01*
X462397Y464068D01*
X463526Y464672D01*
X464516Y465484D01*
X465328Y466474D01*
X465932Y467603D01*
X466159Y468353D01*
D02*
G37*
G36*
X458148D02*
X453636D01*
X453863Y467603D01*
X454467Y466474D01*
X455279Y465484D01*
X456269Y464672D01*
X457398Y464068D01*
X458148Y463841D01*
Y468353D01*
D02*
G37*
G36*
X501750Y470378D02*
Y461750D01*
X510378D01*
X510017Y463255D01*
X509384Y464782D01*
X508521Y466191D01*
X507448Y467448D01*
X506191Y468521D01*
X504782Y469384D01*
X503255Y470017D01*
X501750Y470378D01*
D02*
G37*
G36*
X498250D02*
X496745Y470017D01*
X495218Y469384D01*
X493809Y468521D01*
X492552Y467448D01*
X491479Y466191D01*
X490616Y464782D01*
X489983Y463255D01*
X489622Y461750D01*
X498250D01*
Y470378D01*
D02*
G37*
G36*
X876262Y460750D02*
X871750D01*
Y456238D01*
X872499Y456466D01*
X873629Y457069D01*
X874619Y457882D01*
X875431Y458871D01*
X876034Y460000D01*
X876262Y460750D01*
D02*
G37*
G36*
X868250D02*
X863738D01*
X863966Y460000D01*
X864569Y458871D01*
X865382Y457882D01*
X866371Y457069D01*
X867501Y456466D01*
X868250Y456238D01*
Y460750D01*
D02*
G37*
G36*
X828762D02*
X824250D01*
Y456238D01*
X824999Y456466D01*
X826129Y457069D01*
X827118Y457882D01*
X827931Y458871D01*
X828534Y460000D01*
X828762Y460750D01*
D02*
G37*
G36*
X820750D02*
X816238D01*
X816466Y460000D01*
X817069Y458871D01*
X817882Y457882D01*
X818871Y457069D01*
X820001Y456466D01*
X820750Y456238D01*
Y460750D01*
D02*
G37*
G36*
X510378Y458250D02*
X501750D01*
Y449622D01*
X503255Y449983D01*
X504782Y450616D01*
X506191Y451479D01*
X507448Y452552D01*
X508521Y453809D01*
X509384Y455218D01*
X510017Y456745D01*
X510378Y458250D01*
D02*
G37*
G36*
X498250D02*
X489622D01*
X489983Y456745D01*
X490616Y455218D01*
X491479Y453809D01*
X492552Y452552D01*
X493809Y451479D01*
X495218Y450616D01*
X496745Y449983D01*
X498250Y449622D01*
Y458250D01*
D02*
G37*
G36*
X459250Y448762D02*
Y444250D01*
X463762D01*
X463534Y445000D01*
X462931Y446129D01*
X462118Y447118D01*
X461129Y447931D01*
X460000Y448534D01*
X459250Y448762D01*
D02*
G37*
G36*
X455750D02*
X455001Y448534D01*
X453871Y447931D01*
X452882Y447118D01*
X452069Y446129D01*
X451466Y445000D01*
X451238Y444250D01*
X455750D01*
Y448762D01*
D02*
G37*
G36*
X542500Y486543D02*
X540736Y486370D01*
X539039Y485855D01*
X537476Y485019D01*
X536105Y483895D01*
X534981Y482524D01*
X534145Y480961D01*
X533630Y479264D01*
X533456Y477500D01*
X533630Y475736D01*
X534145Y474039D01*
X534981Y472476D01*
X536105Y471105D01*
X536220Y471011D01*
Y447601D01*
X525147Y436529D01*
X525000Y436544D01*
X523236Y436370D01*
X521539Y435855D01*
X519976Y435019D01*
X518605Y433895D01*
X517481Y432524D01*
X516645Y430961D01*
X516130Y429264D01*
X515956Y427500D01*
X516130Y425736D01*
X516645Y424039D01*
X517481Y422476D01*
X518605Y421105D01*
X519976Y419981D01*
X521539Y419145D01*
X523236Y418630D01*
X525000Y418456D01*
X526764Y418630D01*
X528461Y419145D01*
X530024Y419981D01*
X531395Y421105D01*
X532519Y422476D01*
X533355Y424039D01*
X533870Y425736D01*
X534044Y427500D01*
X534029Y427647D01*
X546941Y440559D01*
X547722Y441511D01*
X548302Y442597D01*
X548620Y443646D01*
X548964Y443815D01*
X549169Y443843D01*
X550078Y443096D01*
X551642Y442260D01*
X553338Y441746D01*
X555103Y441572D01*
X556867Y441746D01*
X558563Y442260D01*
X560127Y443096D01*
X561497Y444221D01*
X562622Y445591D01*
X563458Y447155D01*
X563972Y448851D01*
X564146Y450616D01*
X563972Y452380D01*
X563458Y454076D01*
X562622Y455640D01*
X561497Y457010D01*
X561383Y457104D01*
Y463614D01*
X561497Y463708D01*
X562622Y465078D01*
X563458Y466642D01*
X563972Y468338D01*
X564146Y470103D01*
X563972Y471867D01*
X563458Y473563D01*
X562622Y475127D01*
X561497Y476497D01*
X560127Y477622D01*
X558563Y478458D01*
X556867Y478972D01*
X555103Y479146D01*
X553338Y478972D01*
X551943Y478549D01*
X551409Y478864D01*
X551370Y479264D01*
X550855Y480961D01*
X550019Y482524D01*
X548895Y483895D01*
X547524Y485019D01*
X545961Y485855D01*
X544264Y486370D01*
X542500Y486543D01*
D02*
G37*
G36*
X463762Y440750D02*
X459250D01*
Y436238D01*
X460000Y436466D01*
X461129Y437069D01*
X462118Y437882D01*
X462931Y438871D01*
X463534Y440000D01*
X463762Y440750D01*
D02*
G37*
G36*
X455750D02*
X451238D01*
X451466Y440000D01*
X452069Y438871D01*
X452882Y437882D01*
X453871Y437069D01*
X455001Y436466D01*
X455750Y436238D01*
Y440750D01*
D02*
G37*
G36*
X642500Y489044D02*
X640736Y488870D01*
X639039Y488355D01*
X637476Y487519D01*
X636105Y486395D01*
X634981Y485024D01*
X634145Y483461D01*
X633630Y481764D01*
X633456Y480000D01*
X633630Y478236D01*
X634145Y476539D01*
X634981Y474976D01*
X636105Y473605D01*
X636220Y473511D01*
Y463351D01*
X606131Y433262D01*
X578989D01*
X578895Y433377D01*
X577524Y434502D01*
X575961Y435337D01*
X574264Y435852D01*
X572500Y436026D01*
X570736Y435852D01*
X569039Y435337D01*
X567476Y434502D01*
X566105Y433377D01*
X564981Y432007D01*
X564145Y430443D01*
X563630Y428747D01*
X563456Y426982D01*
X563630Y425218D01*
X564145Y423521D01*
X564981Y421958D01*
X566105Y420588D01*
X567476Y419463D01*
X569039Y418627D01*
X570736Y418112D01*
X572500Y417939D01*
X574264Y418112D01*
X575961Y418627D01*
X577524Y419463D01*
X578895Y420588D01*
X578989Y420702D01*
X608732D01*
X609958Y420823D01*
X611136Y421180D01*
X612221Y421760D01*
X613173Y422542D01*
X646941Y456309D01*
X647722Y457261D01*
X648302Y458347D01*
X648660Y459525D01*
X648780Y460750D01*
Y473511D01*
X648895Y473605D01*
X650019Y474976D01*
X650855Y476539D01*
X651370Y478236D01*
X651544Y480000D01*
X651370Y481764D01*
X650855Y483461D01*
X650019Y485024D01*
X648895Y486395D01*
X647524Y487519D01*
X645961Y488355D01*
X644264Y488870D01*
X642500Y489044D01*
D02*
G37*
G36*
X371750Y418761D02*
Y414250D01*
X376262D01*
X376034Y414999D01*
X375431Y416129D01*
X374618Y417118D01*
X373629Y417931D01*
X372500Y418534D01*
X371750Y418761D01*
D02*
G37*
G36*
X368250D02*
X367501Y418534D01*
X366371Y417931D01*
X365382Y417118D01*
X364569Y416129D01*
X363966Y414999D01*
X363738Y414250D01*
X368250D01*
Y418761D01*
D02*
G37*
G36*
X718900Y416362D02*
Y411850D01*
X723412D01*
X723184Y412599D01*
X722581Y413729D01*
X721768Y414718D01*
X720779Y415531D01*
X719650Y416134D01*
X718900Y416362D01*
D02*
G37*
G36*
X715400D02*
X714650Y416134D01*
X713521Y415531D01*
X712532Y414718D01*
X711719Y413729D01*
X711116Y412599D01*
X710888Y411850D01*
X715400D01*
Y416362D01*
D02*
G37*
G36*
X831750Y416362D02*
Y411850D01*
X836262D01*
X836034Y412599D01*
X835431Y413729D01*
X834618Y414718D01*
X833629Y415531D01*
X832499Y416134D01*
X831750Y416362D01*
D02*
G37*
G36*
X828250D02*
X827501Y416134D01*
X826371Y415531D01*
X825382Y414718D01*
X824569Y413729D01*
X823966Y412599D01*
X823738Y411850D01*
X828250D01*
Y416362D01*
D02*
G37*
G36*
X376262Y410750D02*
X371750D01*
Y406238D01*
X372500Y406466D01*
X373629Y407069D01*
X374618Y407882D01*
X375431Y408871D01*
X376034Y410000D01*
X376262Y410750D01*
D02*
G37*
G36*
X368250D02*
X363738D01*
X363966Y410000D01*
X364569Y408871D01*
X365382Y407882D01*
X366371Y407069D01*
X367501Y406466D01*
X368250Y406238D01*
Y410750D01*
D02*
G37*
G36*
X723412Y408350D02*
X718900D01*
Y403838D01*
X719650Y404066D01*
X720779Y404669D01*
X721768Y405482D01*
X722581Y406471D01*
X723184Y407601D01*
X723412Y408350D01*
D02*
G37*
G36*
X715400D02*
X710888D01*
X711116Y407601D01*
X711719Y406471D01*
X712532Y405482D01*
X713521Y404669D01*
X714650Y404066D01*
X715400Y403838D01*
Y408350D01*
D02*
G37*
G36*
X836262Y408350D02*
X831750D01*
Y403838D01*
X832499Y404066D01*
X833629Y404669D01*
X834618Y405482D01*
X835431Y406471D01*
X836034Y407601D01*
X836262Y408350D01*
D02*
G37*
G36*
X828250D02*
X823738D01*
X823966Y407601D01*
X824569Y406471D01*
X825382Y405482D01*
X826371Y404669D01*
X827501Y404066D01*
X828250Y403838D01*
Y408350D01*
D02*
G37*
G36*
X515000Y413040D02*
X512960Y412880D01*
X510970Y412402D01*
X509080Y411619D01*
X507335Y410550D01*
X505779Y409221D01*
X504450Y407665D01*
X503381Y405920D01*
X502598Y404030D01*
X502120Y402040D01*
X501960Y400000D01*
X502120Y397960D01*
X502598Y395970D01*
X503381Y394080D01*
X504450Y392335D01*
X505779Y390779D01*
X507335Y389450D01*
X509080Y388381D01*
X510970Y387598D01*
X512960Y387120D01*
X515000Y386960D01*
X517040Y387120D01*
X519030Y387598D01*
X520920Y388381D01*
X522665Y389450D01*
X524221Y390779D01*
X525550Y392335D01*
X526619Y394080D01*
X527402Y395970D01*
X527880Y397960D01*
X528040Y400000D01*
X527880Y402040D01*
X527402Y404030D01*
X526619Y405920D01*
X525550Y407665D01*
X524221Y409221D01*
X522665Y410550D01*
X520920Y411619D01*
X519030Y412402D01*
X517040Y412880D01*
X515000Y413040D01*
D02*
G37*
G36*
X769924Y411544D02*
X768160Y411370D01*
X766463Y410855D01*
X764900Y410019D01*
X763529Y408895D01*
X762405Y407524D01*
X761569Y405961D01*
X761054Y404264D01*
X760881Y402500D01*
X760895Y402353D01*
X748059Y389517D01*
X747278Y388565D01*
X746698Y387479D01*
X746340Y386301D01*
X746220Y385076D01*
Y340701D01*
X710147Y304629D01*
X710000Y304643D01*
X708236Y304470D01*
X706539Y303955D01*
X704976Y303119D01*
X703605Y301995D01*
X702481Y300624D01*
X701645Y299061D01*
X701130Y297364D01*
X700956Y295600D01*
X701130Y293836D01*
X701645Y292139D01*
X702481Y290576D01*
X703605Y289205D01*
X704976Y288081D01*
X706539Y287245D01*
X708236Y286730D01*
X710000Y286556D01*
X711764Y286730D01*
X713461Y287245D01*
X715024Y288081D01*
X716250Y289086D01*
X717476Y288081D01*
X719039Y287245D01*
X720736Y286730D01*
X722500Y286556D01*
X724264Y286730D01*
X725961Y287245D01*
X727524Y288081D01*
X728895Y289205D01*
X730019Y290576D01*
X730855Y292139D01*
X731370Y293836D01*
X731544Y295600D01*
X731529Y295747D01*
X764441Y328659D01*
X765222Y329611D01*
X765802Y330697D01*
X766160Y331875D01*
X766280Y333100D01*
Y376663D01*
X769853Y380235D01*
X770000Y380221D01*
X771764Y380395D01*
X773461Y380909D01*
X775024Y381745D01*
X776395Y382870D01*
X777519Y384240D01*
X778355Y385803D01*
X778870Y387500D01*
X779044Y389264D01*
X778870Y391029D01*
X778355Y392725D01*
X777519Y394289D01*
X776462Y395577D01*
X776406Y395785D01*
X776448Y396262D01*
X777443Y397476D01*
X778279Y399039D01*
X778794Y400736D01*
X778968Y402500D01*
X778794Y404264D01*
X778279Y405961D01*
X777443Y407524D01*
X776319Y408895D01*
X774948Y410019D01*
X773385Y410855D01*
X771688Y411370D01*
X769924Y411544D01*
D02*
G37*
G36*
X597500Y379044D02*
X595736Y378870D01*
X594039Y378355D01*
X592476Y377519D01*
X591105Y376395D01*
X591011Y376280D01*
X551489D01*
X551395Y376395D01*
X550024Y377519D01*
X548461Y378355D01*
X546764Y378870D01*
X545000Y379044D01*
X543236Y378870D01*
X541539Y378355D01*
X539976Y377519D01*
X538605Y376395D01*
X537481Y375024D01*
X536645Y373461D01*
X536130Y371764D01*
X535956Y370000D01*
X536130Y368236D01*
X536645Y366539D01*
X537481Y364976D01*
X538605Y363605D01*
X539976Y362481D01*
X541539Y361645D01*
X543236Y361130D01*
X545000Y360956D01*
X546764Y361130D01*
X548461Y361645D01*
X550024Y362481D01*
X551395Y363605D01*
X551489Y363720D01*
X591011D01*
X591105Y363605D01*
X592476Y362481D01*
X594039Y361645D01*
X595736Y361130D01*
X597500Y360956D01*
X599264Y361130D01*
X600961Y361645D01*
X602524Y362481D01*
X603895Y363605D01*
X605019Y364976D01*
X605855Y366539D01*
X606370Y368236D01*
X606544Y370000D01*
X606370Y371764D01*
X605855Y373461D01*
X605019Y375024D01*
X603895Y376395D01*
X602524Y377519D01*
X600961Y378355D01*
X599264Y378870D01*
X597500Y379044D01*
D02*
G37*
G36*
X690750Y350162D02*
Y345650D01*
X695262D01*
X695034Y346399D01*
X694431Y347529D01*
X693618Y348518D01*
X692629Y349331D01*
X691499Y349934D01*
X690750Y350162D01*
D02*
G37*
G36*
X687250D02*
X686500Y349934D01*
X685371Y349331D01*
X684382Y348518D01*
X683569Y347529D01*
X682966Y346399D01*
X682738Y345650D01*
X687250D01*
Y350162D01*
D02*
G37*
G36*
X652750D02*
Y345650D01*
X657262D01*
X657034Y346399D01*
X656431Y347529D01*
X655618Y348518D01*
X654629Y349331D01*
X653500Y349934D01*
X652750Y350162D01*
D02*
G37*
G36*
X649250D02*
X648501Y349934D01*
X647371Y349331D01*
X646382Y348518D01*
X645569Y347529D01*
X644966Y346399D01*
X644738Y345650D01*
X649250D01*
Y350162D01*
D02*
G37*
G36*
X785200Y365540D02*
X783160Y365380D01*
X781170Y364902D01*
X779280Y364119D01*
X777535Y363050D01*
X775979Y361721D01*
X774650Y360165D01*
X773581Y358420D01*
X772798Y356530D01*
X772320Y354540D01*
X772160Y352500D01*
X772320Y350460D01*
X772798Y348470D01*
X773581Y346580D01*
X774650Y344835D01*
X775979Y343279D01*
X777535Y341950D01*
X779280Y340881D01*
X781170Y340098D01*
X783160Y339620D01*
X785200Y339460D01*
X787240Y339620D01*
X789230Y340098D01*
X791120Y340881D01*
X792865Y341950D01*
X794421Y343279D01*
X795750Y344835D01*
X796819Y346580D01*
X797602Y348470D01*
X798080Y350460D01*
X798240Y352500D01*
X798080Y354540D01*
X797602Y356530D01*
X796819Y358420D01*
X795750Y360165D01*
X794421Y361721D01*
X792865Y363050D01*
X791120Y364119D01*
X789230Y364902D01*
X787240Y365380D01*
X785200Y365540D01*
D02*
G37*
G36*
X695262Y342150D02*
X690750D01*
Y337638D01*
X691499Y337866D01*
X692629Y338469D01*
X693618Y339282D01*
X694431Y340271D01*
X695034Y341400D01*
X695262Y342150D01*
D02*
G37*
G36*
X687250D02*
X682738D01*
X682966Y341400D01*
X683569Y340271D01*
X684382Y339282D01*
X685371Y338469D01*
X686500Y337866D01*
X687250Y337638D01*
Y342150D01*
D02*
G37*
G36*
X657262D02*
X652750D01*
Y337638D01*
X653500Y337866D01*
X654629Y338469D01*
X655618Y339282D01*
X656431Y340271D01*
X657034Y341400D01*
X657262Y342150D01*
D02*
G37*
G36*
X649250D02*
X644738D01*
X644966Y341400D01*
X645569Y340271D01*
X646382Y339282D01*
X647371Y338469D01*
X648501Y337866D01*
X649250Y337638D01*
Y342150D01*
D02*
G37*
G36*
X671750Y335278D02*
Y326650D01*
X680378D01*
X680017Y328155D01*
X679385Y329682D01*
X678521Y331091D01*
X677448Y332348D01*
X676191Y333421D01*
X674782Y334285D01*
X673255Y334917D01*
X671750Y335278D01*
D02*
G37*
G36*
X668250D02*
X666745Y334917D01*
X665218Y334285D01*
X663809Y333421D01*
X662552Y332348D01*
X661479Y331091D01*
X660615Y329682D01*
X659983Y328155D01*
X659622Y326650D01*
X668250D01*
Y335278D01*
D02*
G37*
G36*
X220000Y374044D02*
X216860Y373868D01*
X213760Y373341D01*
X210738Y372470D01*
X207832Y371267D01*
X205080Y369746D01*
X202515Y367926D01*
X200170Y365830D01*
X198074Y363485D01*
X196254Y360920D01*
X194733Y358168D01*
X193530Y355262D01*
X192659Y352240D01*
X192132Y349140D01*
X191956Y346000D01*
X192132Y342860D01*
X192659Y339760D01*
X193530Y336738D01*
X194733Y333832D01*
X196254Y331080D01*
X198074Y328515D01*
X200170Y326170D01*
X202515Y324074D01*
X205080Y322254D01*
X207832Y320733D01*
X210738Y319530D01*
X213760Y318659D01*
X216860Y318132D01*
X220000Y317956D01*
X223140Y318132D01*
X226240Y318659D01*
X229262Y319530D01*
X232168Y320733D01*
X234920Y322254D01*
X237485Y324074D01*
X239830Y326170D01*
X241926Y328515D01*
X243746Y331080D01*
X245267Y333832D01*
X246470Y336738D01*
X247341Y339760D01*
X247868Y342860D01*
X248044Y346000D01*
X247868Y349140D01*
X247341Y352240D01*
X246470Y355262D01*
X245267Y358168D01*
X243746Y360920D01*
X241926Y363485D01*
X239830Y365830D01*
X237485Y367926D01*
X234920Y369746D01*
X232168Y371267D01*
X229262Y372470D01*
X226240Y373341D01*
X223140Y373868D01*
X220000Y374044D01*
D02*
G37*
G36*
X680378Y323150D02*
X671750D01*
Y314522D01*
X673255Y314883D01*
X674782Y315515D01*
X676191Y316379D01*
X677448Y317453D01*
X678521Y318709D01*
X679385Y320118D01*
X680017Y321645D01*
X680378Y323150D01*
D02*
G37*
G36*
X668250D02*
X659622D01*
X659983Y321645D01*
X660615Y320118D01*
X661479Y318709D01*
X662552Y317453D01*
X663809Y316379D01*
X665218Y315515D01*
X666745Y314883D01*
X668250Y314522D01*
Y323150D01*
D02*
G37*
G36*
X690750Y312162D02*
Y307650D01*
X695262D01*
X695034Y308400D01*
X694431Y309529D01*
X693618Y310518D01*
X692629Y311331D01*
X691499Y311934D01*
X690750Y312162D01*
D02*
G37*
G36*
X687250D02*
X686500Y311934D01*
X685371Y311331D01*
X684382Y310518D01*
X683569Y309529D01*
X682966Y308400D01*
X682738Y307650D01*
X687250D01*
Y312162D01*
D02*
G37*
G36*
X652750D02*
Y307650D01*
X657262D01*
X657034Y308400D01*
X656431Y309529D01*
X655618Y310518D01*
X654629Y311331D01*
X653500Y311934D01*
X652750Y312162D01*
D02*
G37*
G36*
X649250D02*
X648501Y311934D01*
X647371Y311331D01*
X646382Y310518D01*
X645569Y309529D01*
X644966Y308400D01*
X644738Y307650D01*
X649250D01*
Y312162D01*
D02*
G37*
G36*
X695262Y304150D02*
X690750D01*
Y299638D01*
X691499Y299866D01*
X692629Y300469D01*
X693618Y301282D01*
X694431Y302271D01*
X695034Y303400D01*
X695262Y304150D01*
D02*
G37*
G36*
X687250D02*
X682738D01*
X682966Y303400D01*
X683569Y302271D01*
X684382Y301282D01*
X685371Y300469D01*
X686500Y299866D01*
X687250Y299638D01*
Y304150D01*
D02*
G37*
G36*
X657262D02*
X652750D01*
Y299638D01*
X653500Y299866D01*
X654629Y300469D01*
X655618Y301282D01*
X656431Y302271D01*
X657034Y303400D01*
X657262Y304150D01*
D02*
G37*
G36*
X649250D02*
X644738D01*
X644966Y303400D01*
X645569Y302271D01*
X646382Y301282D01*
X647371Y300469D01*
X648501Y299866D01*
X649250Y299638D01*
Y304150D01*
D02*
G37*
G36*
X796750Y293762D02*
Y289250D01*
X801262D01*
X801034Y290000D01*
X800431Y291129D01*
X799618Y292118D01*
X798629Y292931D01*
X797499Y293534D01*
X796750Y293762D01*
D02*
G37*
G36*
X793250D02*
X792501Y293534D01*
X791371Y292931D01*
X790382Y292118D01*
X789569Y291129D01*
X788966Y290000D01*
X788738Y289250D01*
X793250D01*
Y293762D01*
D02*
G37*
G36*
X801262Y285750D02*
X796750D01*
Y281238D01*
X797499Y281466D01*
X798629Y282069D01*
X799618Y282882D01*
X800431Y283871D01*
X801034Y285000D01*
X801262Y285750D01*
D02*
G37*
G36*
X793250D02*
X788738D01*
X788966Y285000D01*
X789569Y283871D01*
X790382Y282882D01*
X791371Y282069D01*
X792501Y281466D01*
X793250Y281238D01*
Y285750D01*
D02*
G37*
G36*
X500000Y283040D02*
X497960Y282880D01*
X495970Y282402D01*
X494080Y281619D01*
X492335Y280550D01*
X490779Y279221D01*
X489450Y277665D01*
X488381Y275920D01*
X487598Y274030D01*
X487120Y272040D01*
X486960Y270000D01*
X487120Y267960D01*
X487598Y265970D01*
X488381Y264080D01*
X489450Y262335D01*
X490779Y260779D01*
X492335Y259450D01*
X494080Y258381D01*
X495970Y257598D01*
X497960Y257120D01*
X500000Y256960D01*
X502040Y257120D01*
X504030Y257598D01*
X505920Y258381D01*
X507665Y259450D01*
X509221Y260779D01*
X510550Y262335D01*
X511619Y264080D01*
X512402Y265970D01*
X512880Y267960D01*
X513040Y270000D01*
X512880Y272040D01*
X512402Y274030D01*
X511619Y275920D01*
X510550Y277665D01*
X509221Y279221D01*
X507665Y280550D01*
X505920Y281619D01*
X504030Y282402D01*
X502040Y282880D01*
X500000Y283040D01*
D02*
G37*
G36*
X731750Y256262D02*
Y251750D01*
X736262D01*
X736034Y252500D01*
X735431Y253629D01*
X734618Y254618D01*
X733629Y255431D01*
X732499Y256034D01*
X731750Y256262D01*
D02*
G37*
G36*
X728250D02*
X727501Y256034D01*
X726371Y255431D01*
X725382Y254618D01*
X724569Y253629D01*
X723966Y252500D01*
X723738Y251750D01*
X728250D01*
Y256262D01*
D02*
G37*
G36*
X591750D02*
Y251750D01*
X596262D01*
X596034Y252500D01*
X595431Y253629D01*
X594618Y254618D01*
X593629Y255431D01*
X592499Y256034D01*
X591750Y256262D01*
D02*
G37*
G36*
X588250D02*
X587500Y256034D01*
X586371Y255431D01*
X585382Y254618D01*
X584569Y253629D01*
X583966Y252500D01*
X583738Y251750D01*
X588250D01*
Y256262D01*
D02*
G37*
G36*
X784250Y255462D02*
Y250950D01*
X788762D01*
X788534Y251700D01*
X787931Y252829D01*
X787118Y253818D01*
X786129Y254631D01*
X784999Y255234D01*
X784250Y255462D01*
D02*
G37*
G36*
X780750D02*
X780001Y255234D01*
X778871Y254631D01*
X777882Y253818D01*
X777069Y252829D01*
X776466Y251700D01*
X776238Y250950D01*
X780750D01*
Y255462D01*
D02*
G37*
G36*
X736262Y248250D02*
X731750D01*
Y243738D01*
X732499Y243966D01*
X733629Y244569D01*
X734618Y245382D01*
X735431Y246371D01*
X736034Y247500D01*
X736262Y248250D01*
D02*
G37*
G36*
X728250D02*
X723738D01*
X723966Y247500D01*
X724569Y246371D01*
X725382Y245382D01*
X726371Y244569D01*
X727501Y243966D01*
X728250Y243738D01*
Y248250D01*
D02*
G37*
G36*
X596262D02*
X591750D01*
Y243738D01*
X592499Y243966D01*
X593629Y244569D01*
X594618Y245382D01*
X595431Y246371D01*
X596034Y247500D01*
X596262Y248250D01*
D02*
G37*
G36*
X588250D02*
X583738D01*
X583966Y247500D01*
X584569Y246371D01*
X585382Y245382D01*
X586371Y244569D01*
X587500Y243966D01*
X588250Y243738D01*
Y248250D01*
D02*
G37*
G36*
X788762Y247450D02*
X784250D01*
Y242938D01*
X784999Y243166D01*
X786129Y243769D01*
X787118Y244582D01*
X787931Y245571D01*
X788534Y246700D01*
X788762Y247450D01*
D02*
G37*
G36*
X780750D02*
X776238D01*
X776466Y246700D01*
X777069Y245571D01*
X777882Y244582D01*
X778871Y243769D01*
X780001Y243166D01*
X780750Y242938D01*
Y247450D01*
D02*
G37*
%LPD*%
D24*
X870000Y499924D02*
G03*
X769924Y600000I-100076J0D01*
G01*
X230076D02*
G03*
X130000Y499924I0J-100076D01*
G01*
X769924Y100000D02*
G03*
X870000Y200076I0J100076D01*
G01*
X130000D02*
G03*
X154766Y134170I100076J0D01*
G01*
X154766D02*
G03*
X230076Y100000I75310J65906D01*
G01*
X870000Y430000D02*
Y499924D01*
X540000Y600000D02*
X769924D01*
X30000Y30000D02*
Y670000D01*
Y30000D02*
X970000D01*
X30000Y670000D02*
X970000D01*
Y30000D02*
Y300000D01*
X870000Y350000D02*
X970000D01*
X970000Y300000D02*
Y670000D01*
X230076Y600000D02*
X460000D01*
X130000Y430000D02*
Y499924D01*
X330000Y100000D02*
X769924Y100000D01*
X130000Y200076D02*
Y270000D01*
X230076Y100000D02*
Y100000D01*
X870000Y200076D02*
Y270000D01*
X230076Y100000D02*
X330000D01*
X30000Y350000D02*
X130000D01*
X970000Y300000D02*
X970000D01*
D35*
X662900Y524600D02*
X685000D01*
X628279Y559221D02*
X662900Y524600D01*
X568471Y559221D02*
X628279D01*
X539250Y530000D02*
X568471Y559221D01*
X460000Y530000D02*
X539250D01*
X412500Y482500D02*
X460000Y530000D01*
X154766Y134170D02*
X160170D01*
X154766D02*
X154766D01*
D41*
X710000Y295600D02*
X752500Y338100D01*
X722500Y295600D02*
X760000Y333100D01*
Y445000D02*
Y486000D01*
X545000Y370000D02*
X597500D01*
X642500Y460750D02*
Y480000D01*
X752500Y385076D02*
X769924Y402500D01*
X752500Y338100D02*
Y385076D01*
X760000Y379264D02*
X770000Y389264D01*
X760000Y333100D02*
Y379264D01*
X745000Y445000D02*
Y475000D01*
X608732Y426982D02*
X642500Y460750D01*
X572500Y426982D02*
X608732D01*
X542500Y445000D02*
Y477500D01*
X525000Y427500D02*
X542500Y445000D01*
X555103Y450616D02*
Y470103D01*
D42*
X785200Y352500D02*
D03*
X555103Y505000D02*
D03*
X515000Y400000D02*
D03*
X500000Y270000D02*
D03*
X220000Y194000D02*
D03*
Y346000D02*
D03*
X500000D02*
D03*
X710398Y550000D02*
D03*
X684998D02*
D03*
X710398Y524600D02*
D03*
X684998D02*
D03*
X774597Y524600D02*
D03*
X774600Y550000D02*
D03*
X670000Y324900D02*
D03*
X500000Y460000D02*
D03*
X220000Y517500D02*
D03*
D43*
X870000Y430000D02*
D03*
Y350000D02*
D03*
Y270000D02*
D03*
X130000Y430000D02*
D03*
Y350000D02*
D03*
Y270000D02*
D03*
D44*
X925000Y75000D02*
D03*
Y625000D02*
D03*
X75000Y75000D02*
D03*
Y625000D02*
D03*
D45*
X955000Y410000D02*
D03*
Y290000D02*
D03*
X45000D02*
D03*
Y410000D02*
D03*
D46*
X317500Y540000D02*
D03*
X378750D02*
D03*
X451000Y482500D02*
D03*
X572500Y495000D02*
D03*
X710000Y295600D02*
D03*
X722500D02*
D03*
X822500Y462500D02*
D03*
X760000Y486000D02*
D03*
X597500Y370000D02*
D03*
X651000Y343900D02*
D03*
X689000D02*
D03*
X651000Y305900D02*
D03*
X689000D02*
D03*
X412500Y482500D02*
D03*
X642500Y480000D02*
D03*
X830000Y410100D02*
D03*
X770000Y389264D02*
D03*
X769924Y402500D02*
D03*
X370000Y412500D02*
D03*
X745000Y475000D02*
D03*
X760000Y445000D02*
D03*
X745000D02*
D03*
X572500Y426982D02*
D03*
X555103Y450616D02*
D03*
X542500Y477500D02*
D03*
X555103Y470103D02*
D03*
X545000Y370000D02*
D03*
X782500Y249200D02*
D03*
X795000Y287500D02*
D03*
X717150Y410100D02*
D03*
X730000Y250000D02*
D03*
X590000D02*
D03*
X459897Y470103D02*
D03*
X282500Y502500D02*
D03*
Y532500D02*
D03*
X474000Y492500D02*
D03*
X512501Y115000D02*
D03*
X487501D02*
D03*
X500001Y100000D02*
D03*
X512501Y85000D02*
D03*
X487501D02*
D03*
X525001Y100000D02*
D03*
X475001D02*
D03*
X870000Y462500D02*
D03*
Y512500D02*
D03*
X885000Y475000D02*
D03*
Y500000D02*
D03*
X870000Y487500D02*
D03*
X855000Y475000D02*
D03*
Y500000D02*
D03*
Y200000D02*
D03*
Y225000D02*
D03*
X870000Y212500D02*
D03*
X885000Y200000D02*
D03*
Y225000D02*
D03*
X870000Y187500D02*
D03*
Y237500D02*
D03*
X115000Y200000D02*
D03*
Y225000D02*
D03*
X130000Y212500D02*
D03*
X145000Y200000D02*
D03*
Y225000D02*
D03*
X130000Y187500D02*
D03*
Y237500D02*
D03*
Y462500D02*
D03*
Y512500D02*
D03*
X145000Y475000D02*
D03*
Y500000D02*
D03*
X130000Y487500D02*
D03*
X115000Y475000D02*
D03*
Y500000D02*
D03*
X400000Y600000D02*
D03*
X450000D02*
D03*
X412500Y585000D02*
D03*
X437500D02*
D03*
X425000Y600000D02*
D03*
X412500Y615000D02*
D03*
X437500D02*
D03*
X457500Y442500D02*
D03*
X525000Y427500D02*
D03*
X602500Y495000D02*
D03*
X562500Y615000D02*
D03*
X587500D02*
D03*
X575000Y600000D02*
D03*
X562500Y585000D02*
D03*
X587500D02*
D03*
X550000Y600000D02*
D03*
X600000D02*
D03*
X585000Y540000D02*
D03*
X415000D02*
D03*
M02*
