G04*
G04 #@! TF.GenerationSoftware,Altium Limited,Altium Designer,18.1.7 (191)*
G04*
G04 Layer_Color=16711935*
%FSLAX44Y44*%
%MOMM*%
G71*
G01*
G75*
%ADD36C,1.8032*%
%ADD37C,4.2032*%
%ADD38C,6.2032*%
G04:AMPARAMS|DCode=39|XSize=5.2032mm|YSize=3.2032mm|CornerRadius=1.6016mm|HoleSize=0mm|Usage=FLASHONLY|Rotation=0.000|XOffset=0mm|YOffset=0mm|HoleType=Round|Shape=RoundedRectangle|*
%AMROUNDEDRECTD39*
21,1,5.2032,0.0000,0,0,0.0*
21,1,2.0000,3.2032,0,0,0.0*
1,1,3.2032,1.0000,0.0000*
1,1,3.2032,-1.0000,0.0000*
1,1,3.2032,-1.0000,0.0000*
1,1,3.2032,1.0000,0.0000*
%
%ADD39ROUNDEDRECTD39*%
%ADD40C,1.0032*%
D36*
X785200Y352500D02*
D03*
X555103Y505000D02*
D03*
X515000Y400000D02*
D03*
X500000Y270000D02*
D03*
X220000Y194000D02*
D03*
Y346000D02*
D03*
X500000D02*
D03*
X710398Y550000D02*
D03*
X684998D02*
D03*
X710398Y524600D02*
D03*
X684998D02*
D03*
X774597Y524600D02*
D03*
X774600Y550000D02*
D03*
X670000Y324900D02*
D03*
X500000Y460000D02*
D03*
X220000Y517500D02*
D03*
D37*
X870000Y430000D02*
D03*
Y350000D02*
D03*
Y270000D02*
D03*
X130000Y430000D02*
D03*
Y350000D02*
D03*
Y270000D02*
D03*
D38*
X925000Y75000D02*
D03*
Y625000D02*
D03*
X75000Y75000D02*
D03*
Y625000D02*
D03*
D39*
X955000Y410000D02*
D03*
Y290000D02*
D03*
X45000D02*
D03*
Y410000D02*
D03*
D40*
X317500Y540000D02*
D03*
X378750D02*
D03*
X451000Y482500D02*
D03*
X572500Y495000D02*
D03*
X710000Y295600D02*
D03*
X722500D02*
D03*
X822500Y462500D02*
D03*
X760000Y486000D02*
D03*
X597500Y370000D02*
D03*
X651000Y343900D02*
D03*
X689000D02*
D03*
X651000Y305900D02*
D03*
X689000D02*
D03*
X412500Y482500D02*
D03*
X642500Y480000D02*
D03*
X830000Y410100D02*
D03*
X770000Y389264D02*
D03*
X769924Y402500D02*
D03*
X370000Y412500D02*
D03*
X745000Y475000D02*
D03*
X760000Y445000D02*
D03*
X745000D02*
D03*
X572500Y426982D02*
D03*
X555103Y450616D02*
D03*
X542500Y477500D02*
D03*
X555103Y470103D02*
D03*
X545000Y370000D02*
D03*
X782500Y249200D02*
D03*
X795000Y287500D02*
D03*
X717150Y410100D02*
D03*
X730000Y250000D02*
D03*
X590000D02*
D03*
X459897Y470103D02*
D03*
X282500Y502500D02*
D03*
Y532500D02*
D03*
X474000Y492500D02*
D03*
X512501Y115000D02*
D03*
X487501D02*
D03*
X500001Y100000D02*
D03*
X512501Y85000D02*
D03*
X487501D02*
D03*
X525001Y100000D02*
D03*
X475001D02*
D03*
X870000Y462500D02*
D03*
Y512500D02*
D03*
X885000Y475000D02*
D03*
Y500000D02*
D03*
X870000Y487500D02*
D03*
X855000Y475000D02*
D03*
Y500000D02*
D03*
Y200000D02*
D03*
Y225000D02*
D03*
X870000Y212500D02*
D03*
X885000Y200000D02*
D03*
Y225000D02*
D03*
X870000Y187500D02*
D03*
Y237500D02*
D03*
X115000Y200000D02*
D03*
Y225000D02*
D03*
X130000Y212500D02*
D03*
X145000Y200000D02*
D03*
Y225000D02*
D03*
X130000Y187500D02*
D03*
Y237500D02*
D03*
Y462500D02*
D03*
Y512500D02*
D03*
X145000Y475000D02*
D03*
Y500000D02*
D03*
X130000Y487500D02*
D03*
X115000Y475000D02*
D03*
Y500000D02*
D03*
X400000Y600000D02*
D03*
X450000D02*
D03*
X412500Y585000D02*
D03*
X437500D02*
D03*
X425000Y600000D02*
D03*
X412500Y615000D02*
D03*
X437500D02*
D03*
X457500Y442500D02*
D03*
X525000Y427500D02*
D03*
X602500Y495000D02*
D03*
X562500Y615000D02*
D03*
X587500D02*
D03*
X575000Y600000D02*
D03*
X562500Y585000D02*
D03*
X587500D02*
D03*
X550000Y600000D02*
D03*
X600000D02*
D03*
X585000Y540000D02*
D03*
X415000D02*
D03*
M02*
