G04*
G04 #@! TF.GenerationSoftware,Altium Limited,Altium Designer,18.1.7 (191)*
G04*
G04 Layer_Physical_Order=1*
G04 Layer_Color=255*
%FSLAX44Y44*%
%MOMM*%
G71*
G01*
G75*
%ADD13C,0.5000*%
%ADD14R,2.5000X0.9000*%
%ADD15R,0.9000X2.5000*%
%ADD16R,5.0000X5.0000*%
%ADD17R,3.3000X3.3000*%
%ADD18R,1.2000X0.3000*%
%ADD19R,0.3000X1.2000*%
%ADD20R,1.5000X1.4000*%
%ADD21R,1.4000X1.5000*%
%ADD22R,1.8000X1.2000*%
%ADD23R,2.7000X3.6000*%
%ADD24C,5.0000*%
%ADD35C,1.0000*%
%ADD41C,0.2500*%
%ADD42C,4.0000*%
%ADD43C,1.6000*%
%ADD44C,6.0000*%
G04:AMPARAMS|DCode=45|XSize=5mm|YSize=3mm|CornerRadius=1.5mm|HoleSize=0mm|Usage=FLASHONLY|Rotation=0.000|XOffset=0mm|YOffset=0mm|HoleType=Round|Shape=RoundedRectangle|*
%AMROUNDEDRECTD45*
21,1,5.0000,0.0000,0,0,0.0*
21,1,2.0000,3.0000,0,0,0.0*
1,1,3.0000,1.0000,0.0000*
1,1,3.0000,-1.0000,0.0000*
1,1,3.0000,-1.0000,0.0000*
1,1,3.0000,1.0000,0.0000*
%
%ADD45ROUNDEDRECTD45*%
%ADD46C,0.8000*%
D13*
X775000Y320000D02*
X785000Y330000D01*
X775000Y300000D02*
Y320000D01*
X785200Y330200D02*
Y350000D01*
X785000Y330000D02*
X785200Y330200D01*
X830000Y397500D02*
Y410100D01*
X370000Y412500D02*
X382498D01*
X500000Y270000D02*
X532500Y237500D01*
X597500D01*
X622700Y262700D02*
X747500D01*
X597500Y237500D02*
X622700Y262700D01*
X572500Y460000D02*
X572501Y460001D01*
X775000Y280000D02*
Y300000D01*
X770400Y275400D02*
X775000Y280000D01*
X782300Y270000D02*
X795200D01*
X775000Y262700D02*
X782300Y270000D01*
X782500Y249600D02*
X795200D01*
X795000Y287500D02*
Y299600D01*
X795400Y300000D01*
X747500Y262700D02*
X775000D01*
X747500Y275400D02*
X770400D01*
X717150Y410100D02*
Y427600D01*
X730000Y250000D02*
X747500D01*
X572500D02*
X590000D01*
X436500Y482500D02*
X450000D01*
X270000Y502500D02*
X282500D01*
X270000Y532500D02*
X282500D01*
X250000Y497500D02*
Y517500D01*
Y537500D01*
X220000Y517500D02*
X250000D01*
X220000Y501500D02*
Y517500D01*
X318750Y540000D02*
X332500D01*
X363750Y540000D02*
X377500D01*
X363750Y540000D02*
X363750Y540000D01*
X572500Y480000D02*
Y495000D01*
X602500Y480000D02*
Y495000D01*
X332500Y520000D02*
X363750D01*
X570000Y540000D02*
X585000D01*
X415000D02*
X430000D01*
X520000D02*
X550000D01*
X450000D02*
X480000D01*
D14*
X572500Y250000D02*
D03*
Y262700D02*
D03*
Y275400D02*
D03*
Y288100D02*
D03*
Y300800D02*
D03*
Y313500D02*
D03*
Y326200D02*
D03*
Y415100D02*
D03*
Y402400D02*
D03*
Y389700D02*
D03*
Y377000D02*
D03*
Y364300D02*
D03*
Y351600D02*
D03*
Y338900D02*
D03*
X747500D02*
D03*
Y351600D02*
D03*
Y364300D02*
D03*
Y377000D02*
D03*
Y389700D02*
D03*
Y402400D02*
D03*
Y415100D02*
D03*
Y326200D02*
D03*
Y313500D02*
D03*
Y300800D02*
D03*
Y288100D02*
D03*
Y275400D02*
D03*
Y262700D02*
D03*
Y250000D02*
D03*
D15*
X615550Y427600D02*
D03*
X602850D02*
D03*
X717150D02*
D03*
X628250D02*
D03*
X640950D02*
D03*
X653650D02*
D03*
X666350D02*
D03*
X679050D02*
D03*
X691750D02*
D03*
X704450D02*
D03*
D16*
X670000Y324900D02*
D03*
D17*
X500001Y459999D02*
D03*
D18*
X474000Y475000D02*
D03*
Y470000D02*
D03*
Y465000D02*
D03*
Y460000D02*
D03*
Y455000D02*
D03*
Y450000D02*
D03*
Y445000D02*
D03*
X526000Y445000D02*
D03*
Y450000D02*
D03*
Y455000D02*
D03*
Y460000D02*
D03*
Y465000D02*
D03*
Y470000D02*
D03*
Y475000D02*
D03*
D19*
X515000Y486000D02*
D03*
X510000D02*
D03*
X505000D02*
D03*
X500000D02*
D03*
X495000D02*
D03*
X490000D02*
D03*
X485000D02*
D03*
X515000Y434000D02*
D03*
X510000D02*
D03*
X505000D02*
D03*
X500000D02*
D03*
X495000D02*
D03*
X490000D02*
D03*
X485000D02*
D03*
D20*
X432500Y410000D02*
D03*
Y430000D02*
D03*
X332500Y520000D02*
D03*
Y540000D02*
D03*
X520000D02*
D03*
Y560000D02*
D03*
X480000Y540000D02*
D03*
Y560000D02*
D03*
X572500Y481000D02*
D03*
Y461000D02*
D03*
X436250Y482500D02*
D03*
Y462500D02*
D03*
X602500Y480000D02*
D03*
Y460000D02*
D03*
X363750Y540000D02*
D03*
Y520000D02*
D03*
X795200Y250000D02*
D03*
Y270000D02*
D03*
D21*
X785000Y330000D02*
D03*
X805000D02*
D03*
X652500Y460001D02*
D03*
X632500D02*
D03*
X270000Y532500D02*
D03*
X250000D02*
D03*
X402498Y412500D02*
D03*
X382498D02*
D03*
X810000Y397500D02*
D03*
X830000D02*
D03*
X795000Y300000D02*
D03*
X775000D02*
D03*
X430000Y540000D02*
D03*
X450000D02*
D03*
X570000D02*
D03*
X550000D02*
D03*
X270000Y502500D02*
D03*
X250000D02*
D03*
D22*
X220000Y501500D02*
D03*
Y473500D02*
D03*
Y444000D02*
D03*
Y416000D02*
D03*
D23*
X471500Y600000D02*
D03*
X528500D02*
D03*
D24*
X870000Y499924D02*
G03*
X769924Y600000I-100076J0D01*
G01*
X230076D02*
G03*
X130000Y499924I0J-100076D01*
G01*
X769924Y100000D02*
G03*
X870000Y200076I0J100076D01*
G01*
X154766Y134170D02*
G03*
X230076Y100000I75310J65906D01*
G01*
X130000Y200076D02*
G03*
X154766Y134170I100076J0D01*
G01*
X30000Y350000D02*
X130000D01*
X30000D02*
Y670000D01*
Y30000D02*
Y350000D01*
Y30000D02*
X970000D01*
X30000Y670000D02*
X970000D01*
Y30000D02*
Y300000D01*
Y670000D01*
X870000Y350000D02*
X970000D01*
X540000Y600000D02*
X769924D01*
X870000Y430000D02*
Y499924D01*
X230076Y600000D02*
X460000D01*
X130000Y430000D02*
Y499924D01*
X330000Y100000D02*
X769924Y100000D01*
X230076D02*
Y100000D01*
X130000Y200076D02*
Y270000D01*
X230076Y100000D02*
X330000D01*
X870000Y200076D02*
Y270000D01*
X970000Y300000D02*
X970000D01*
D35*
X685000Y460001D02*
Y524600D01*
X805000Y330000D02*
Y435000D01*
X412500Y357500D02*
Y438750D01*
Y482500D01*
X685000Y460001D02*
X779999D01*
X652500D02*
X685000D01*
X412500Y438750D02*
X436250Y462500D01*
X412500Y357500D02*
X432500Y337500D01*
X779999Y460001D02*
X805000Y435000D01*
X572501Y460001D02*
X632500D01*
X432500Y337500D02*
Y410000D01*
Y337500D02*
X500000Y270000D01*
X812500Y287300D02*
Y312500D01*
X805000Y320000D02*
X812500Y312500D01*
X805000Y320000D02*
Y330000D01*
X795200Y270000D02*
X812500Y287300D01*
X220000Y444000D02*
Y473500D01*
Y416000D02*
X280000Y356000D01*
Y254000D02*
Y356000D01*
X220000Y194000D02*
X280000Y254000D01*
X130000Y430000D02*
X136000D01*
X220000Y346000D01*
X154766Y134170D02*
X154766D01*
X160170D01*
X220000Y194000D01*
D41*
X710400Y509600D02*
Y524600D01*
X315076Y499924D02*
X490076D01*
X495000Y495000D01*
X667500Y567500D02*
X732100D01*
X642500Y542500D02*
X667500Y567500D01*
X642500Y480000D02*
Y542500D01*
X732100Y567500D02*
X775000Y524600D01*
X760000Y475000D02*
Y500400D01*
X710400Y550000D02*
X760000Y500400D01*
X710400Y509600D02*
X745000Y475000D01*
X770000Y389264D02*
X779999Y399263D01*
X769924Y402500D02*
Y420076D01*
X760000Y445000D02*
X779999Y425001D01*
X745000Y445000D02*
Y445000D01*
Y445000D02*
X769924Y420076D01*
X779999Y399263D02*
Y425001D01*
X599575Y280000D02*
X706900D01*
X591475Y288100D02*
X599575Y280000D01*
X572500Y288100D02*
X591475D01*
X706900Y280000D02*
X727500Y300600D01*
X702500Y288100D02*
X715000Y300600D01*
X604400Y288100D02*
X702500D01*
X591700Y300800D02*
X604400Y288100D01*
X572500Y300800D02*
X591700D01*
X572500Y415100D02*
Y426982D01*
X570000Y444000D02*
X592000Y422000D01*
X561718Y444000D02*
X570000D01*
X555103Y450616D02*
X561718Y444000D01*
X602500Y370000D02*
X697500D01*
X592000Y365475D02*
Y422000D01*
Y365475D02*
X597075Y360400D01*
X693100D01*
X726500Y313500D02*
X747500D01*
X710000Y330000D02*
X726500Y313500D01*
X710000Y330000D02*
Y343500D01*
X727500Y326200D02*
X747500D01*
X720000Y333700D02*
X727500Y326200D01*
X720000Y333700D02*
Y347500D01*
X697500Y370000D02*
X720000Y347500D01*
X693100Y360400D02*
X710000Y343500D01*
X535000Y470000D02*
X542500Y477500D01*
X526000Y470000D02*
X535000D01*
X550000Y465000D02*
X555103Y470103D01*
X500000Y415000D02*
X545000Y370000D01*
X500000Y415000D02*
Y434000D01*
X537750Y455000D02*
X555000Y437750D01*
Y325000D02*
Y437750D01*
X500000Y270000D02*
X555000Y325000D01*
X571500Y459000D02*
X572500Y460000D01*
X526000Y460000D02*
X571500D01*
X526000Y465000D02*
X550000D01*
X437436Y434009D02*
X458427Y455000D01*
X460897D01*
X475000D01*
X459897Y470103D02*
X465000Y465000D01*
X436250Y460000D02*
X436250Y460000D01*
X474000D01*
X465000Y465000D02*
X474000D01*
X474000Y492500D02*
X482500D01*
X526000Y455000D02*
X537750D01*
X515000Y560000D02*
Y565000D01*
X297500Y517500D02*
X315076Y499924D01*
X457500Y442500D02*
X465000Y450000D01*
X474000Y465000D02*
X474000Y465000D01*
X465000Y450000D02*
X474000D01*
X490002D02*
X500001Y459999D01*
X474000Y450000D02*
X490002D01*
X495000Y465000D02*
X500001Y459999D01*
X474000Y465000D02*
X495000D01*
X505000Y425100D02*
Y434000D01*
Y425100D02*
X510100Y420000D01*
X517500D01*
X525000Y427500D01*
X482500Y492500D02*
X485000Y490000D01*
Y486000D02*
Y490000D01*
X520000Y510000D02*
Y540000D01*
X510000Y500000D02*
X520000Y510000D01*
X510000Y486000D02*
Y500000D01*
X480000Y530000D02*
Y540000D01*
Y530000D02*
X505000Y505000D01*
Y486000D02*
Y505000D01*
X500000Y486000D02*
Y499925D01*
X479925Y520000D02*
X500000Y499925D01*
X363750Y520000D02*
X479925D01*
X495000Y486000D02*
Y495000D01*
X250000Y517500D02*
X297500D01*
X505000Y575000D02*
X515000Y565000D01*
X505000Y575000D02*
Y592500D01*
X485000Y560000D02*
Y565000D01*
X495000Y575000D02*
Y592500D01*
X485000Y565000D02*
X495000Y575000D01*
X487500Y600000D02*
X495000Y592500D01*
X471500Y600000D02*
X487500D01*
X512500D02*
X528500D01*
X505000Y592500D02*
X512500Y600000D01*
D42*
X870000Y430000D02*
D03*
Y350000D02*
D03*
Y270000D02*
D03*
X130000Y430000D02*
D03*
Y350000D02*
D03*
Y270000D02*
D03*
D43*
X500000D02*
D03*
X220000Y194000D02*
D03*
Y346000D02*
D03*
X500000D02*
D03*
X710398Y550000D02*
D03*
X684998D02*
D03*
X710398Y524600D02*
D03*
X684998D02*
D03*
X774597Y525000D02*
D03*
X812497Y545000D02*
D03*
X670000Y324900D02*
D03*
X500000Y460000D02*
D03*
X785200Y350000D02*
D03*
X220000Y517500D02*
D03*
D44*
X925000Y75000D02*
D03*
Y625000D02*
D03*
X75000Y75000D02*
D03*
Y625000D02*
D03*
D45*
X955000Y410000D02*
D03*
Y290000D02*
D03*
X45000D02*
D03*
Y410000D02*
D03*
D46*
X651000Y343900D02*
D03*
X689000D02*
D03*
X651000Y305900D02*
D03*
X689000D02*
D03*
X412500Y482500D02*
D03*
X642500Y480000D02*
D03*
X830000Y410100D02*
D03*
X770000Y389264D02*
D03*
X769924Y402500D02*
D03*
X370000Y412500D02*
D03*
X760000Y475000D02*
D03*
X745000D02*
D03*
X760000Y445000D02*
D03*
X745000D02*
D03*
X715000Y300600D02*
D03*
X727500D02*
D03*
X572500Y426982D02*
D03*
X602500Y370000D02*
D03*
X555103Y450616D02*
D03*
X542500Y477500D02*
D03*
X555103Y470103D02*
D03*
X545000Y370000D02*
D03*
X782500Y249200D02*
D03*
X795000Y287500D02*
D03*
X717150Y410100D02*
D03*
X730000Y250000D02*
D03*
X590000D02*
D03*
X450000Y482500D02*
D03*
X459897Y470103D02*
D03*
X282500Y502500D02*
D03*
Y532500D02*
D03*
X474000Y492500D02*
D03*
X512501Y115000D02*
D03*
X487501D02*
D03*
X500001Y100000D02*
D03*
X512501Y85000D02*
D03*
X487501D02*
D03*
X525001Y100000D02*
D03*
X475001D02*
D03*
X870000Y462500D02*
D03*
Y512500D02*
D03*
X885000Y475000D02*
D03*
Y500000D02*
D03*
X870000Y487500D02*
D03*
X855000Y475000D02*
D03*
Y500000D02*
D03*
Y200000D02*
D03*
Y225000D02*
D03*
X870000Y212500D02*
D03*
X885000Y200000D02*
D03*
Y225000D02*
D03*
X870000Y187500D02*
D03*
Y237500D02*
D03*
X115000Y200000D02*
D03*
Y225000D02*
D03*
X130000Y212500D02*
D03*
X145000Y200000D02*
D03*
Y225000D02*
D03*
X130000Y187500D02*
D03*
Y237500D02*
D03*
Y462500D02*
D03*
Y512500D02*
D03*
X145000Y475000D02*
D03*
Y500000D02*
D03*
X130000Y487500D02*
D03*
X115000Y475000D02*
D03*
Y500000D02*
D03*
X400000Y600000D02*
D03*
X450000D02*
D03*
X412500Y585000D02*
D03*
X437500D02*
D03*
X425000Y600000D02*
D03*
X412500Y615000D02*
D03*
X437500D02*
D03*
X457500Y442500D02*
D03*
X525000Y427500D02*
D03*
X318750Y540000D02*
D03*
X377500Y540000D02*
D03*
X572500Y495000D02*
D03*
X602500D02*
D03*
X562500Y615000D02*
D03*
X587500D02*
D03*
X575000Y600000D02*
D03*
X562500Y585000D02*
D03*
X587500D02*
D03*
X550000Y600000D02*
D03*
X600000D02*
D03*
X585000Y540000D02*
D03*
X415000D02*
D03*
M02*
